%TF.GenerationSoftware,KiCad,Pcbnew,9.0.3*%
%TF.CreationDate,2025-08-16T14:39:39+02:00*%
%TF.ProjectId,pico-gps-spedometer,7069636f-2d67-4707-932d-737065646f6d,rev?*%
%TF.SameCoordinates,Original*%
%TF.FileFunction,Soldermask,Bot*%
%TF.FilePolarity,Negative*%
%FSLAX46Y46*%
G04 Gerber Fmt 4.6, Leading zero omitted, Abs format (unit mm)*
G04 Created by KiCad (PCBNEW 9.0.3) date 2025-08-16 14:39:39*
%MOMM*%
%LPD*%
G01*
G04 APERTURE LIST*
G04 Aperture macros list*
%AMRoundRect*
0 Rectangle with rounded corners*
0 $1 Rounding radius*
0 $2 $3 $4 $5 $6 $7 $8 $9 X,Y pos of 4 corners*
0 Add a 4 corners polygon primitive as box body*
4,1,4,$2,$3,$4,$5,$6,$7,$8,$9,$2,$3,0*
0 Add four circle primitives for the rounded corners*
1,1,$1+$1,$2,$3*
1,1,$1+$1,$4,$5*
1,1,$1+$1,$6,$7*
1,1,$1+$1,$8,$9*
0 Add four rect primitives between the rounded corners*
20,1,$1+$1,$2,$3,$4,$5,0*
20,1,$1+$1,$4,$5,$6,$7,0*
20,1,$1+$1,$6,$7,$8,$9,0*
20,1,$1+$1,$8,$9,$2,$3,0*%
G04 Aperture macros list end*
%ADD10C,3.200000*%
%ADD11RoundRect,0.249999X1.250001X1.250001X-1.250001X1.250001X-1.250001X-1.250001X1.250001X-1.250001X0*%
%ADD12C,3.000000*%
%ADD13C,2.200000*%
%ADD14RoundRect,0.249999X0.850001X-0.850001X0.850001X0.850001X-0.850001X0.850001X-0.850001X-0.850001X0*%
%ADD15R,1.700000X1.700000*%
%ADD16C,1.700000*%
%ADD17R,1.500000X1.050000*%
%ADD18O,1.500000X1.050000*%
%ADD19C,3.500000*%
%ADD20R,1.905000X2.000000*%
%ADD21O,1.905000X2.000000*%
%ADD22C,1.400000*%
%ADD23RoundRect,0.250000X-0.550000X-0.550000X0.550000X-0.550000X0.550000X0.550000X-0.550000X0.550000X0*%
%ADD24C,1.600000*%
%ADD25R,1.050000X1.500000*%
%ADD26O,1.050000X1.500000*%
%ADD27RoundRect,0.250000X0.550000X0.550000X-0.550000X0.550000X-0.550000X-0.550000X0.550000X-0.550000X0*%
%ADD28R,2.000000X2.000000*%
%ADD29C,2.000000*%
%ADD30RoundRect,0.102000X-0.754000X-0.754000X0.754000X-0.754000X0.754000X0.754000X-0.754000X0.754000X0*%
%ADD31C,1.712000*%
%ADD32R,2.800000X2.800000*%
G04 APERTURE END LIST*
D10*
%TO.C,*%
X99500000Y-86402500D03*
%TD*%
%TO.C,BT1*%
X127305000Y-86402500D03*
X71695000Y-86402500D03*
D11*
X135750000Y-86402500D03*
D12*
X62850000Y-86402500D03*
%TD*%
D13*
%TO.C,REF\u002A\u002A*%
X57000000Y-96000000D03*
%TD*%
%TO.C,REF\u002A\u002A*%
X130500000Y-72250000D03*
%TD*%
D10*
%TO.C,REF\u002A\u002A*%
X138000000Y-70500000D03*
%TD*%
D14*
%TO.C,D1*%
X131500000Y-47750000D03*
D13*
X131500000Y-37590000D03*
%TD*%
D15*
%TO.C,U2*%
X91850000Y-70402500D03*
D16*
X94390000Y-70402500D03*
X96930000Y-70402500D03*
%TD*%
D15*
%TO.C,J3*%
X57000000Y-81420000D03*
D16*
X57000000Y-83960000D03*
X57000000Y-86500000D03*
X57000000Y-89040000D03*
X57000000Y-91580000D03*
%TD*%
D17*
%TO.C,Q2*%
X70250000Y-58500000D03*
D18*
X70250000Y-59770000D03*
X70250000Y-61040000D03*
%TD*%
D10*
%TO.C,REF\u002A\u002A*%
X62000000Y-26500000D03*
%TD*%
D19*
%TO.C,U3*%
X123345000Y-42562500D03*
D20*
X125885000Y-25902500D03*
D21*
X123345000Y-25902500D03*
X120805000Y-25902500D03*
%TD*%
D10*
%TO.C,REF\u002A\u002A*%
X62000000Y-70500000D03*
%TD*%
D22*
%TO.C,R3*%
X88305000Y-53152500D03*
X88305000Y-60772500D03*
%TD*%
D23*
%TO.C,C4*%
X118805000Y-57902500D03*
D24*
X121305000Y-57902500D03*
%TD*%
D15*
%TO.C,U4*%
X57055000Y-64922500D03*
D16*
X57055000Y-62382500D03*
X57055000Y-59842500D03*
X57055000Y-57302500D03*
X57055000Y-54762500D03*
X57055000Y-52222500D03*
X57055000Y-49682500D03*
X57055000Y-47142500D03*
X57055000Y-44602500D03*
X57055000Y-42062500D03*
X57055000Y-39522500D03*
X57055000Y-36982500D03*
X57055000Y-34442500D03*
X57055000Y-31902500D03*
%TD*%
D22*
%TO.C,R7*%
X67750000Y-72310000D03*
X67750000Y-64690000D03*
%TD*%
D25*
%TO.C,Q1*%
X86555000Y-64652500D03*
D26*
X85285000Y-64652500D03*
X84015000Y-64652500D03*
%TD*%
D22*
%TO.C,R8*%
X76250000Y-60870000D03*
X76250000Y-53250000D03*
%TD*%
%TO.C,R4*%
X84430000Y-53092500D03*
X84430000Y-60712500D03*
%TD*%
D24*
%TO.C,C2*%
X129180000Y-67652500D03*
X129180000Y-65152500D03*
%TD*%
D15*
%TO.C,R5*%
X101805000Y-70402500D03*
D16*
X104345000Y-70402500D03*
%TD*%
D15*
%TO.C,J1*%
X138250000Y-37525000D03*
D16*
X138250000Y-34985000D03*
%TD*%
D10*
%TO.C,REF\u002A\u002A*%
X138000000Y-26500000D03*
%TD*%
D27*
%TO.C,C3*%
X131555000Y-57902500D03*
D24*
X129055000Y-57902500D03*
%TD*%
D28*
%TO.C,BZ1*%
X76000000Y-72100000D03*
D29*
X76000000Y-64500000D03*
%TD*%
D30*
%TO.C,U1*%
X82490000Y-27652500D03*
D31*
X82490000Y-30192500D03*
X82490000Y-32732500D03*
X82490000Y-35272500D03*
X82490000Y-37812500D03*
X82490000Y-40352500D03*
X82490000Y-42892500D03*
X82490000Y-45432500D03*
X82490000Y-47972500D03*
X79950000Y-47972500D03*
X77410000Y-47972500D03*
X74870000Y-47972500D03*
X72330000Y-47972500D03*
X69790000Y-47972500D03*
X67250000Y-47972500D03*
X67250000Y-45432500D03*
X67250000Y-42892500D03*
X67250000Y-40352500D03*
X67250000Y-37812500D03*
X67250000Y-35272500D03*
X67250000Y-32732500D03*
X67250000Y-30192500D03*
X67250000Y-27652500D03*
%TD*%
D32*
%TO.C,J2*%
X113917500Y-25990000D03*
X99717500Y-25990000D03*
X113917500Y-48890000D03*
X99417500Y-48890000D03*
X110417500Y-48890000D03*
X102817500Y-48890000D03*
%TD*%
D22*
%TO.C,R1*%
X95680000Y-60772500D03*
X95680000Y-53152500D03*
%TD*%
%TO.C,R2*%
X88305000Y-36532500D03*
X88305000Y-44152500D03*
%TD*%
D24*
%TO.C,C1*%
X121180000Y-67652500D03*
X121180000Y-65152500D03*
%TD*%
D22*
%TO.C,R6*%
X92055000Y-53152500D03*
X92055000Y-60772500D03*
%TD*%
M02*
