%TF.GenerationSoftware,KiCad,Pcbnew,9.0.3*%
%TF.CreationDate,2025-08-16T14:39:39+02:00*%
%TF.ProjectId,pico-gps-spedometer,7069636f-2d67-4707-932d-737065646f6d,rev?*%
%TF.SameCoordinates,Original*%
%TF.FileFunction,Legend,Top*%
%TF.FilePolarity,Positive*%
%FSLAX46Y46*%
G04 Gerber Fmt 4.6, Leading zero omitted, Abs format (unit mm)*
G04 Created by KiCad (PCBNEW 9.0.3) date 2025-08-16 14:39:39*
%MOMM*%
%LPD*%
G01*
G04 APERTURE LIST*
%ADD10C,0.150000*%
%ADD11C,0.120000*%
%ADD12C,0.127000*%
%ADD13C,0.200000*%
G04 APERTURE END LIST*
D10*
X93964285Y-82431009D02*
X94107142Y-82478628D01*
X94107142Y-82478628D02*
X94154761Y-82526247D01*
X94154761Y-82526247D02*
X94202380Y-82621485D01*
X94202380Y-82621485D02*
X94202380Y-82764342D01*
X94202380Y-82764342D02*
X94154761Y-82859580D01*
X94154761Y-82859580D02*
X94107142Y-82907200D01*
X94107142Y-82907200D02*
X94011904Y-82954819D01*
X94011904Y-82954819D02*
X93630952Y-82954819D01*
X93630952Y-82954819D02*
X93630952Y-81954819D01*
X93630952Y-81954819D02*
X93964285Y-81954819D01*
X93964285Y-81954819D02*
X94059523Y-82002438D01*
X94059523Y-82002438D02*
X94107142Y-82050057D01*
X94107142Y-82050057D02*
X94154761Y-82145295D01*
X94154761Y-82145295D02*
X94154761Y-82240533D01*
X94154761Y-82240533D02*
X94107142Y-82335771D01*
X94107142Y-82335771D02*
X94059523Y-82383390D01*
X94059523Y-82383390D02*
X93964285Y-82431009D01*
X93964285Y-82431009D02*
X93630952Y-82431009D01*
X94488095Y-81954819D02*
X95059523Y-81954819D01*
X94773809Y-82954819D02*
X94773809Y-81954819D01*
X95916666Y-82954819D02*
X95345238Y-82954819D01*
X95630952Y-82954819D02*
X95630952Y-81954819D01*
X95630952Y-81954819D02*
X95535714Y-82097676D01*
X95535714Y-82097676D02*
X95440476Y-82192914D01*
X95440476Y-82192914D02*
X95345238Y-82240533D01*
X134037142Y-90139700D02*
X136322857Y-90139700D01*
X135179999Y-91282557D02*
X135179999Y-88996842D01*
X131954819Y-43078094D02*
X130954819Y-43078094D01*
X130954819Y-43078094D02*
X130954819Y-42839999D01*
X130954819Y-42839999D02*
X131002438Y-42697142D01*
X131002438Y-42697142D02*
X131097676Y-42601904D01*
X131097676Y-42601904D02*
X131192914Y-42554285D01*
X131192914Y-42554285D02*
X131383390Y-42506666D01*
X131383390Y-42506666D02*
X131526247Y-42506666D01*
X131526247Y-42506666D02*
X131716723Y-42554285D01*
X131716723Y-42554285D02*
X131811961Y-42601904D01*
X131811961Y-42601904D02*
X131907200Y-42697142D01*
X131907200Y-42697142D02*
X131954819Y-42839999D01*
X131954819Y-42839999D02*
X131954819Y-43078094D01*
X131954819Y-41554285D02*
X131954819Y-42125713D01*
X131954819Y-41839999D02*
X130954819Y-41839999D01*
X130954819Y-41839999D02*
X131097676Y-41935237D01*
X131097676Y-41935237D02*
X131192914Y-42030475D01*
X131192914Y-42030475D02*
X131240533Y-42125713D01*
X129854819Y-48011904D02*
X128854819Y-48011904D01*
X129854819Y-47440476D02*
X129283390Y-47869047D01*
X128854819Y-47440476D02*
X129426247Y-48011904D01*
X93418095Y-67107319D02*
X93418095Y-67916842D01*
X93418095Y-67916842D02*
X93465714Y-68012080D01*
X93465714Y-68012080D02*
X93513333Y-68059700D01*
X93513333Y-68059700D02*
X93608571Y-68107319D01*
X93608571Y-68107319D02*
X93799047Y-68107319D01*
X93799047Y-68107319D02*
X93894285Y-68059700D01*
X93894285Y-68059700D02*
X93941904Y-68012080D01*
X93941904Y-68012080D02*
X93989523Y-67916842D01*
X93989523Y-67916842D02*
X93989523Y-67107319D01*
X94418095Y-67202557D02*
X94465714Y-67154938D01*
X94465714Y-67154938D02*
X94560952Y-67107319D01*
X94560952Y-67107319D02*
X94799047Y-67107319D01*
X94799047Y-67107319D02*
X94894285Y-67154938D01*
X94894285Y-67154938D02*
X94941904Y-67202557D01*
X94941904Y-67202557D02*
X94989523Y-67297795D01*
X94989523Y-67297795D02*
X94989523Y-67393033D01*
X94989523Y-67393033D02*
X94941904Y-67535890D01*
X94941904Y-67535890D02*
X94370476Y-68107319D01*
X94370476Y-68107319D02*
X94989523Y-68107319D01*
X59204819Y-86623333D02*
X59919104Y-86623333D01*
X59919104Y-86623333D02*
X60061961Y-86670952D01*
X60061961Y-86670952D02*
X60157200Y-86766190D01*
X60157200Y-86766190D02*
X60204819Y-86909047D01*
X60204819Y-86909047D02*
X60204819Y-87004285D01*
X59204819Y-86242380D02*
X59204819Y-85623333D01*
X59204819Y-85623333D02*
X59585771Y-85956666D01*
X59585771Y-85956666D02*
X59585771Y-85813809D01*
X59585771Y-85813809D02*
X59633390Y-85718571D01*
X59633390Y-85718571D02*
X59681009Y-85670952D01*
X59681009Y-85670952D02*
X59776247Y-85623333D01*
X59776247Y-85623333D02*
X60014342Y-85623333D01*
X60014342Y-85623333D02*
X60109580Y-85670952D01*
X60109580Y-85670952D02*
X60157200Y-85718571D01*
X60157200Y-85718571D02*
X60204819Y-85813809D01*
X60204819Y-85813809D02*
X60204819Y-86099523D01*
X60204819Y-86099523D02*
X60157200Y-86194761D01*
X60157200Y-86194761D02*
X60109580Y-86242380D01*
X67800057Y-59845238D02*
X67752438Y-59940476D01*
X67752438Y-59940476D02*
X67657200Y-60035714D01*
X67657200Y-60035714D02*
X67514342Y-60178571D01*
X67514342Y-60178571D02*
X67466723Y-60273809D01*
X67466723Y-60273809D02*
X67466723Y-60369047D01*
X67704819Y-60321428D02*
X67657200Y-60416666D01*
X67657200Y-60416666D02*
X67561961Y-60511904D01*
X67561961Y-60511904D02*
X67371485Y-60559523D01*
X67371485Y-60559523D02*
X67038152Y-60559523D01*
X67038152Y-60559523D02*
X66847676Y-60511904D01*
X66847676Y-60511904D02*
X66752438Y-60416666D01*
X66752438Y-60416666D02*
X66704819Y-60321428D01*
X66704819Y-60321428D02*
X66704819Y-60130952D01*
X66704819Y-60130952D02*
X66752438Y-60035714D01*
X66752438Y-60035714D02*
X66847676Y-59940476D01*
X66847676Y-59940476D02*
X67038152Y-59892857D01*
X67038152Y-59892857D02*
X67371485Y-59892857D01*
X67371485Y-59892857D02*
X67561961Y-59940476D01*
X67561961Y-59940476D02*
X67657200Y-60035714D01*
X67657200Y-60035714D02*
X67704819Y-60130952D01*
X67704819Y-60130952D02*
X67704819Y-60321428D01*
X66800057Y-59511904D02*
X66752438Y-59464285D01*
X66752438Y-59464285D02*
X66704819Y-59369047D01*
X66704819Y-59369047D02*
X66704819Y-59130952D01*
X66704819Y-59130952D02*
X66752438Y-59035714D01*
X66752438Y-59035714D02*
X66800057Y-58988095D01*
X66800057Y-58988095D02*
X66895295Y-58940476D01*
X66895295Y-58940476D02*
X66990533Y-58940476D01*
X66990533Y-58940476D02*
X67133390Y-58988095D01*
X67133390Y-58988095D02*
X67704819Y-59559523D01*
X67704819Y-59559523D02*
X67704819Y-58940476D01*
X122583095Y-46107319D02*
X122583095Y-46916842D01*
X122583095Y-46916842D02*
X122630714Y-47012080D01*
X122630714Y-47012080D02*
X122678333Y-47059700D01*
X122678333Y-47059700D02*
X122773571Y-47107319D01*
X122773571Y-47107319D02*
X122964047Y-47107319D01*
X122964047Y-47107319D02*
X123059285Y-47059700D01*
X123059285Y-47059700D02*
X123106904Y-47012080D01*
X123106904Y-47012080D02*
X123154523Y-46916842D01*
X123154523Y-46916842D02*
X123154523Y-46107319D01*
X123535476Y-46107319D02*
X124154523Y-46107319D01*
X124154523Y-46107319D02*
X123821190Y-46488271D01*
X123821190Y-46488271D02*
X123964047Y-46488271D01*
X123964047Y-46488271D02*
X124059285Y-46535890D01*
X124059285Y-46535890D02*
X124106904Y-46583509D01*
X124106904Y-46583509D02*
X124154523Y-46678747D01*
X124154523Y-46678747D02*
X124154523Y-46916842D01*
X124154523Y-46916842D02*
X124106904Y-47012080D01*
X124106904Y-47012080D02*
X124059285Y-47059700D01*
X124059285Y-47059700D02*
X123964047Y-47107319D01*
X123964047Y-47107319D02*
X123678333Y-47107319D01*
X123678333Y-47107319D02*
X123583095Y-47059700D01*
X123583095Y-47059700D02*
X123535476Y-47012080D01*
X88759819Y-57129166D02*
X88283628Y-57462499D01*
X88759819Y-57700594D02*
X87759819Y-57700594D01*
X87759819Y-57700594D02*
X87759819Y-57319642D01*
X87759819Y-57319642D02*
X87807438Y-57224404D01*
X87807438Y-57224404D02*
X87855057Y-57176785D01*
X87855057Y-57176785D02*
X87950295Y-57129166D01*
X87950295Y-57129166D02*
X88093152Y-57129166D01*
X88093152Y-57129166D02*
X88188390Y-57176785D01*
X88188390Y-57176785D02*
X88236009Y-57224404D01*
X88236009Y-57224404D02*
X88283628Y-57319642D01*
X88283628Y-57319642D02*
X88283628Y-57700594D01*
X87759819Y-56795832D02*
X87759819Y-56176785D01*
X87759819Y-56176785D02*
X88140771Y-56510118D01*
X88140771Y-56510118D02*
X88140771Y-56367261D01*
X88140771Y-56367261D02*
X88188390Y-56272023D01*
X88188390Y-56272023D02*
X88236009Y-56224404D01*
X88236009Y-56224404D02*
X88331247Y-56176785D01*
X88331247Y-56176785D02*
X88569342Y-56176785D01*
X88569342Y-56176785D02*
X88664580Y-56224404D01*
X88664580Y-56224404D02*
X88712200Y-56272023D01*
X88712200Y-56272023D02*
X88759819Y-56367261D01*
X88759819Y-56367261D02*
X88759819Y-56652975D01*
X88759819Y-56652975D02*
X88712200Y-56748213D01*
X88712200Y-56748213D02*
X88664580Y-56795832D01*
X119638333Y-53262080D02*
X119590714Y-53309700D01*
X119590714Y-53309700D02*
X119447857Y-53357319D01*
X119447857Y-53357319D02*
X119352619Y-53357319D01*
X119352619Y-53357319D02*
X119209762Y-53309700D01*
X119209762Y-53309700D02*
X119114524Y-53214461D01*
X119114524Y-53214461D02*
X119066905Y-53119223D01*
X119066905Y-53119223D02*
X119019286Y-52928747D01*
X119019286Y-52928747D02*
X119019286Y-52785890D01*
X119019286Y-52785890D02*
X119066905Y-52595414D01*
X119066905Y-52595414D02*
X119114524Y-52500176D01*
X119114524Y-52500176D02*
X119209762Y-52404938D01*
X119209762Y-52404938D02*
X119352619Y-52357319D01*
X119352619Y-52357319D02*
X119447857Y-52357319D01*
X119447857Y-52357319D02*
X119590714Y-52404938D01*
X119590714Y-52404938D02*
X119638333Y-52452557D01*
X120495476Y-52690652D02*
X120495476Y-53357319D01*
X120257381Y-52309700D02*
X120019286Y-53023985D01*
X120019286Y-53023985D02*
X120638333Y-53023985D01*
X53454819Y-49261904D02*
X54264342Y-49261904D01*
X54264342Y-49261904D02*
X54359580Y-49214285D01*
X54359580Y-49214285D02*
X54407200Y-49166666D01*
X54407200Y-49166666D02*
X54454819Y-49071428D01*
X54454819Y-49071428D02*
X54454819Y-48880952D01*
X54454819Y-48880952D02*
X54407200Y-48785714D01*
X54407200Y-48785714D02*
X54359580Y-48738095D01*
X54359580Y-48738095D02*
X54264342Y-48690476D01*
X54264342Y-48690476D02*
X53454819Y-48690476D01*
X53788152Y-47785714D02*
X54454819Y-47785714D01*
X53407200Y-48023809D02*
X54121485Y-48261904D01*
X54121485Y-48261904D02*
X54121485Y-47642857D01*
X68204819Y-68726666D02*
X67728628Y-69059999D01*
X68204819Y-69298094D02*
X67204819Y-69298094D01*
X67204819Y-69298094D02*
X67204819Y-68917142D01*
X67204819Y-68917142D02*
X67252438Y-68821904D01*
X67252438Y-68821904D02*
X67300057Y-68774285D01*
X67300057Y-68774285D02*
X67395295Y-68726666D01*
X67395295Y-68726666D02*
X67538152Y-68726666D01*
X67538152Y-68726666D02*
X67633390Y-68774285D01*
X67633390Y-68774285D02*
X67681009Y-68821904D01*
X67681009Y-68821904D02*
X67728628Y-68917142D01*
X67728628Y-68917142D02*
X67728628Y-69298094D01*
X67204819Y-68393332D02*
X67204819Y-67726666D01*
X67204819Y-67726666D02*
X68204819Y-68155237D01*
X85189761Y-68762557D02*
X85094523Y-68714938D01*
X85094523Y-68714938D02*
X84999285Y-68619700D01*
X84999285Y-68619700D02*
X84856428Y-68476842D01*
X84856428Y-68476842D02*
X84761190Y-68429223D01*
X84761190Y-68429223D02*
X84665952Y-68429223D01*
X84713571Y-68667319D02*
X84618333Y-68619700D01*
X84618333Y-68619700D02*
X84523095Y-68524461D01*
X84523095Y-68524461D02*
X84475476Y-68333985D01*
X84475476Y-68333985D02*
X84475476Y-68000652D01*
X84475476Y-68000652D02*
X84523095Y-67810176D01*
X84523095Y-67810176D02*
X84618333Y-67714938D01*
X84618333Y-67714938D02*
X84713571Y-67667319D01*
X84713571Y-67667319D02*
X84904047Y-67667319D01*
X84904047Y-67667319D02*
X84999285Y-67714938D01*
X84999285Y-67714938D02*
X85094523Y-67810176D01*
X85094523Y-67810176D02*
X85142142Y-68000652D01*
X85142142Y-68000652D02*
X85142142Y-68333985D01*
X85142142Y-68333985D02*
X85094523Y-68524461D01*
X85094523Y-68524461D02*
X84999285Y-68619700D01*
X84999285Y-68619700D02*
X84904047Y-68667319D01*
X84904047Y-68667319D02*
X84713571Y-68667319D01*
X86094523Y-68667319D02*
X85523095Y-68667319D01*
X85808809Y-68667319D02*
X85808809Y-67667319D01*
X85808809Y-67667319D02*
X85713571Y-67810176D01*
X85713571Y-67810176D02*
X85618333Y-67905414D01*
X85618333Y-67905414D02*
X85523095Y-67953033D01*
X76704819Y-57416666D02*
X76228628Y-57749999D01*
X76704819Y-57988094D02*
X75704819Y-57988094D01*
X75704819Y-57988094D02*
X75704819Y-57607142D01*
X75704819Y-57607142D02*
X75752438Y-57511904D01*
X75752438Y-57511904D02*
X75800057Y-57464285D01*
X75800057Y-57464285D02*
X75895295Y-57416666D01*
X75895295Y-57416666D02*
X76038152Y-57416666D01*
X76038152Y-57416666D02*
X76133390Y-57464285D01*
X76133390Y-57464285D02*
X76181009Y-57511904D01*
X76181009Y-57511904D02*
X76228628Y-57607142D01*
X76228628Y-57607142D02*
X76228628Y-57988094D01*
X76133390Y-56845237D02*
X76085771Y-56940475D01*
X76085771Y-56940475D02*
X76038152Y-56988094D01*
X76038152Y-56988094D02*
X75942914Y-57035713D01*
X75942914Y-57035713D02*
X75895295Y-57035713D01*
X75895295Y-57035713D02*
X75800057Y-56988094D01*
X75800057Y-56988094D02*
X75752438Y-56940475D01*
X75752438Y-56940475D02*
X75704819Y-56845237D01*
X75704819Y-56845237D02*
X75704819Y-56654761D01*
X75704819Y-56654761D02*
X75752438Y-56559523D01*
X75752438Y-56559523D02*
X75800057Y-56511904D01*
X75800057Y-56511904D02*
X75895295Y-56464285D01*
X75895295Y-56464285D02*
X75942914Y-56464285D01*
X75942914Y-56464285D02*
X76038152Y-56511904D01*
X76038152Y-56511904D02*
X76085771Y-56559523D01*
X76085771Y-56559523D02*
X76133390Y-56654761D01*
X76133390Y-56654761D02*
X76133390Y-56845237D01*
X76133390Y-56845237D02*
X76181009Y-56940475D01*
X76181009Y-56940475D02*
X76228628Y-56988094D01*
X76228628Y-56988094D02*
X76323866Y-57035713D01*
X76323866Y-57035713D02*
X76514342Y-57035713D01*
X76514342Y-57035713D02*
X76609580Y-56988094D01*
X76609580Y-56988094D02*
X76657200Y-56940475D01*
X76657200Y-56940475D02*
X76704819Y-56845237D01*
X76704819Y-56845237D02*
X76704819Y-56654761D01*
X76704819Y-56654761D02*
X76657200Y-56559523D01*
X76657200Y-56559523D02*
X76609580Y-56511904D01*
X76609580Y-56511904D02*
X76514342Y-56464285D01*
X76514342Y-56464285D02*
X76323866Y-56464285D01*
X76323866Y-56464285D02*
X76228628Y-56511904D01*
X76228628Y-56511904D02*
X76181009Y-56559523D01*
X76181009Y-56559523D02*
X76133390Y-56654761D01*
X84884819Y-57069166D02*
X84408628Y-57402499D01*
X84884819Y-57640594D02*
X83884819Y-57640594D01*
X83884819Y-57640594D02*
X83884819Y-57259642D01*
X83884819Y-57259642D02*
X83932438Y-57164404D01*
X83932438Y-57164404D02*
X83980057Y-57116785D01*
X83980057Y-57116785D02*
X84075295Y-57069166D01*
X84075295Y-57069166D02*
X84218152Y-57069166D01*
X84218152Y-57069166D02*
X84313390Y-57116785D01*
X84313390Y-57116785D02*
X84361009Y-57164404D01*
X84361009Y-57164404D02*
X84408628Y-57259642D01*
X84408628Y-57259642D02*
X84408628Y-57640594D01*
X84218152Y-56212023D02*
X84884819Y-56212023D01*
X83837200Y-56450118D02*
X84551485Y-56688213D01*
X84551485Y-56688213D02*
X84551485Y-56069166D01*
X127039580Y-66569166D02*
X127087200Y-66616785D01*
X127087200Y-66616785D02*
X127134819Y-66759642D01*
X127134819Y-66759642D02*
X127134819Y-66854880D01*
X127134819Y-66854880D02*
X127087200Y-66997737D01*
X127087200Y-66997737D02*
X126991961Y-67092975D01*
X126991961Y-67092975D02*
X126896723Y-67140594D01*
X126896723Y-67140594D02*
X126706247Y-67188213D01*
X126706247Y-67188213D02*
X126563390Y-67188213D01*
X126563390Y-67188213D02*
X126372914Y-67140594D01*
X126372914Y-67140594D02*
X126277676Y-67092975D01*
X126277676Y-67092975D02*
X126182438Y-66997737D01*
X126182438Y-66997737D02*
X126134819Y-66854880D01*
X126134819Y-66854880D02*
X126134819Y-66759642D01*
X126134819Y-66759642D02*
X126182438Y-66616785D01*
X126182438Y-66616785D02*
X126230057Y-66569166D01*
X126230057Y-66188213D02*
X126182438Y-66140594D01*
X126182438Y-66140594D02*
X126134819Y-66045356D01*
X126134819Y-66045356D02*
X126134819Y-65807261D01*
X126134819Y-65807261D02*
X126182438Y-65712023D01*
X126182438Y-65712023D02*
X126230057Y-65664404D01*
X126230057Y-65664404D02*
X126325295Y-65616785D01*
X126325295Y-65616785D02*
X126420533Y-65616785D01*
X126420533Y-65616785D02*
X126563390Y-65664404D01*
X126563390Y-65664404D02*
X127134819Y-66235832D01*
X127134819Y-66235832D02*
X127134819Y-65616785D01*
X102833333Y-68204819D02*
X102500000Y-67728628D01*
X102261905Y-68204819D02*
X102261905Y-67204819D01*
X102261905Y-67204819D02*
X102642857Y-67204819D01*
X102642857Y-67204819D02*
X102738095Y-67252438D01*
X102738095Y-67252438D02*
X102785714Y-67300057D01*
X102785714Y-67300057D02*
X102833333Y-67395295D01*
X102833333Y-67395295D02*
X102833333Y-67538152D01*
X102833333Y-67538152D02*
X102785714Y-67633390D01*
X102785714Y-67633390D02*
X102738095Y-67681009D01*
X102738095Y-67681009D02*
X102642857Y-67728628D01*
X102642857Y-67728628D02*
X102261905Y-67728628D01*
X103738095Y-67204819D02*
X103261905Y-67204819D01*
X103261905Y-67204819D02*
X103214286Y-67681009D01*
X103214286Y-67681009D02*
X103261905Y-67633390D01*
X103261905Y-67633390D02*
X103357143Y-67585771D01*
X103357143Y-67585771D02*
X103595238Y-67585771D01*
X103595238Y-67585771D02*
X103690476Y-67633390D01*
X103690476Y-67633390D02*
X103738095Y-67681009D01*
X103738095Y-67681009D02*
X103785714Y-67776247D01*
X103785714Y-67776247D02*
X103785714Y-68014342D01*
X103785714Y-68014342D02*
X103738095Y-68109580D01*
X103738095Y-68109580D02*
X103690476Y-68157200D01*
X103690476Y-68157200D02*
X103595238Y-68204819D01*
X103595238Y-68204819D02*
X103357143Y-68204819D01*
X103357143Y-68204819D02*
X103261905Y-68157200D01*
X103261905Y-68157200D02*
X103214286Y-68109580D01*
X137704819Y-32510833D02*
X138419104Y-32510833D01*
X138419104Y-32510833D02*
X138561961Y-32558452D01*
X138561961Y-32558452D02*
X138657200Y-32653690D01*
X138657200Y-32653690D02*
X138704819Y-32796547D01*
X138704819Y-32796547D02*
X138704819Y-32891785D01*
X138704819Y-31510833D02*
X138704819Y-32082261D01*
X138704819Y-31796547D02*
X137704819Y-31796547D01*
X137704819Y-31796547D02*
X137847676Y-31891785D01*
X137847676Y-31891785D02*
X137942914Y-31987023D01*
X137942914Y-31987023D02*
X137990533Y-32082261D01*
X130388333Y-53012080D02*
X130340714Y-53059700D01*
X130340714Y-53059700D02*
X130197857Y-53107319D01*
X130197857Y-53107319D02*
X130102619Y-53107319D01*
X130102619Y-53107319D02*
X129959762Y-53059700D01*
X129959762Y-53059700D02*
X129864524Y-52964461D01*
X129864524Y-52964461D02*
X129816905Y-52869223D01*
X129816905Y-52869223D02*
X129769286Y-52678747D01*
X129769286Y-52678747D02*
X129769286Y-52535890D01*
X129769286Y-52535890D02*
X129816905Y-52345414D01*
X129816905Y-52345414D02*
X129864524Y-52250176D01*
X129864524Y-52250176D02*
X129959762Y-52154938D01*
X129959762Y-52154938D02*
X130102619Y-52107319D01*
X130102619Y-52107319D02*
X130197857Y-52107319D01*
X130197857Y-52107319D02*
X130340714Y-52154938D01*
X130340714Y-52154938D02*
X130388333Y-52202557D01*
X130721667Y-52107319D02*
X131340714Y-52107319D01*
X131340714Y-52107319D02*
X131007381Y-52488271D01*
X131007381Y-52488271D02*
X131150238Y-52488271D01*
X131150238Y-52488271D02*
X131245476Y-52535890D01*
X131245476Y-52535890D02*
X131293095Y-52583509D01*
X131293095Y-52583509D02*
X131340714Y-52678747D01*
X131340714Y-52678747D02*
X131340714Y-52916842D01*
X131340714Y-52916842D02*
X131293095Y-53012080D01*
X131293095Y-53012080D02*
X131245476Y-53059700D01*
X131245476Y-53059700D02*
X131150238Y-53107319D01*
X131150238Y-53107319D02*
X130864524Y-53107319D01*
X130864524Y-53107319D02*
X130769286Y-53059700D01*
X130769286Y-53059700D02*
X130721667Y-53012080D01*
X73181009Y-69130952D02*
X73228628Y-68988095D01*
X73228628Y-68988095D02*
X73276247Y-68940476D01*
X73276247Y-68940476D02*
X73371485Y-68892857D01*
X73371485Y-68892857D02*
X73514342Y-68892857D01*
X73514342Y-68892857D02*
X73609580Y-68940476D01*
X73609580Y-68940476D02*
X73657200Y-68988095D01*
X73657200Y-68988095D02*
X73704819Y-69083333D01*
X73704819Y-69083333D02*
X73704819Y-69464285D01*
X73704819Y-69464285D02*
X72704819Y-69464285D01*
X72704819Y-69464285D02*
X72704819Y-69130952D01*
X72704819Y-69130952D02*
X72752438Y-69035714D01*
X72752438Y-69035714D02*
X72800057Y-68988095D01*
X72800057Y-68988095D02*
X72895295Y-68940476D01*
X72895295Y-68940476D02*
X72990533Y-68940476D01*
X72990533Y-68940476D02*
X73085771Y-68988095D01*
X73085771Y-68988095D02*
X73133390Y-69035714D01*
X73133390Y-69035714D02*
X73181009Y-69130952D01*
X73181009Y-69130952D02*
X73181009Y-69464285D01*
X72704819Y-68559523D02*
X72704819Y-67892857D01*
X72704819Y-67892857D02*
X73704819Y-68559523D01*
X73704819Y-68559523D02*
X73704819Y-67892857D01*
X73704819Y-66988095D02*
X73704819Y-67559523D01*
X73704819Y-67273809D02*
X72704819Y-67273809D01*
X72704819Y-67273809D02*
X72847676Y-67369047D01*
X72847676Y-67369047D02*
X72942914Y-67464285D01*
X72942914Y-67464285D02*
X72990533Y-67559523D01*
X73573866Y-72480951D02*
X73573866Y-71719047D01*
X73954819Y-72099999D02*
X73192914Y-72099999D01*
X73988095Y-29704819D02*
X73988095Y-30514342D01*
X73988095Y-30514342D02*
X74035714Y-30609580D01*
X74035714Y-30609580D02*
X74083333Y-30657200D01*
X74083333Y-30657200D02*
X74178571Y-30704819D01*
X74178571Y-30704819D02*
X74369047Y-30704819D01*
X74369047Y-30704819D02*
X74464285Y-30657200D01*
X74464285Y-30657200D02*
X74511904Y-30609580D01*
X74511904Y-30609580D02*
X74559523Y-30514342D01*
X74559523Y-30514342D02*
X74559523Y-29704819D01*
X75559523Y-30704819D02*
X74988095Y-30704819D01*
X75273809Y-30704819D02*
X75273809Y-29704819D01*
X75273809Y-29704819D02*
X75178571Y-29847676D01*
X75178571Y-29847676D02*
X75083333Y-29942914D01*
X75083333Y-29942914D02*
X74988095Y-29990533D01*
X95472319Y-38223333D02*
X96186604Y-38223333D01*
X96186604Y-38223333D02*
X96329461Y-38270952D01*
X96329461Y-38270952D02*
X96424700Y-38366190D01*
X96424700Y-38366190D02*
X96472319Y-38509047D01*
X96472319Y-38509047D02*
X96472319Y-38604285D01*
X95567557Y-37794761D02*
X95519938Y-37747142D01*
X95519938Y-37747142D02*
X95472319Y-37651904D01*
X95472319Y-37651904D02*
X95472319Y-37413809D01*
X95472319Y-37413809D02*
X95519938Y-37318571D01*
X95519938Y-37318571D02*
X95567557Y-37270952D01*
X95567557Y-37270952D02*
X95662795Y-37223333D01*
X95662795Y-37223333D02*
X95758033Y-37223333D01*
X95758033Y-37223333D02*
X95900890Y-37270952D01*
X95900890Y-37270952D02*
X96472319Y-37842380D01*
X96472319Y-37842380D02*
X96472319Y-37223333D01*
X101419938Y-26851904D02*
X101372319Y-26947142D01*
X101372319Y-26947142D02*
X101372319Y-27089999D01*
X101372319Y-27089999D02*
X101419938Y-27232856D01*
X101419938Y-27232856D02*
X101515176Y-27328094D01*
X101515176Y-27328094D02*
X101610414Y-27375713D01*
X101610414Y-27375713D02*
X101800890Y-27423332D01*
X101800890Y-27423332D02*
X101943747Y-27423332D01*
X101943747Y-27423332D02*
X102134223Y-27375713D01*
X102134223Y-27375713D02*
X102229461Y-27328094D01*
X102229461Y-27328094D02*
X102324700Y-27232856D01*
X102324700Y-27232856D02*
X102372319Y-27089999D01*
X102372319Y-27089999D02*
X102372319Y-26994761D01*
X102372319Y-26994761D02*
X102324700Y-26851904D01*
X102324700Y-26851904D02*
X102277080Y-26804285D01*
X102277080Y-26804285D02*
X101943747Y-26804285D01*
X101943747Y-26804285D02*
X101943747Y-26994761D01*
X102372319Y-26375713D02*
X101372319Y-26375713D01*
X101372319Y-26375713D02*
X102372319Y-25804285D01*
X102372319Y-25804285D02*
X101372319Y-25804285D01*
X102372319Y-25328094D02*
X101372319Y-25328094D01*
X101372319Y-25328094D02*
X101372319Y-25089999D01*
X101372319Y-25089999D02*
X101419938Y-24947142D01*
X101419938Y-24947142D02*
X101515176Y-24851904D01*
X101515176Y-24851904D02*
X101610414Y-24804285D01*
X101610414Y-24804285D02*
X101800890Y-24756666D01*
X101800890Y-24756666D02*
X101943747Y-24756666D01*
X101943747Y-24756666D02*
X102134223Y-24804285D01*
X102134223Y-24804285D02*
X102229461Y-24851904D01*
X102229461Y-24851904D02*
X102324700Y-24947142D01*
X102324700Y-24947142D02*
X102372319Y-25089999D01*
X102372319Y-25089999D02*
X102372319Y-25328094D01*
X106648509Y-43632858D02*
X106696128Y-43490001D01*
X106696128Y-43490001D02*
X106743747Y-43442382D01*
X106743747Y-43442382D02*
X106838985Y-43394763D01*
X106838985Y-43394763D02*
X106981842Y-43394763D01*
X106981842Y-43394763D02*
X107077080Y-43442382D01*
X107077080Y-43442382D02*
X107124700Y-43490001D01*
X107124700Y-43490001D02*
X107172319Y-43585239D01*
X107172319Y-43585239D02*
X107172319Y-43966191D01*
X107172319Y-43966191D02*
X106172319Y-43966191D01*
X106172319Y-43966191D02*
X106172319Y-43632858D01*
X106172319Y-43632858D02*
X106219938Y-43537620D01*
X106219938Y-43537620D02*
X106267557Y-43490001D01*
X106267557Y-43490001D02*
X106362795Y-43442382D01*
X106362795Y-43442382D02*
X106458033Y-43442382D01*
X106458033Y-43442382D02*
X106553271Y-43490001D01*
X106553271Y-43490001D02*
X106600890Y-43537620D01*
X106600890Y-43537620D02*
X106648509Y-43632858D01*
X106648509Y-43632858D02*
X106648509Y-43966191D01*
X107172319Y-42537620D02*
X106648509Y-42537620D01*
X106648509Y-42537620D02*
X106553271Y-42585239D01*
X106553271Y-42585239D02*
X106505652Y-42680477D01*
X106505652Y-42680477D02*
X106505652Y-42870953D01*
X106505652Y-42870953D02*
X106553271Y-42966191D01*
X107124700Y-42537620D02*
X107172319Y-42632858D01*
X107172319Y-42632858D02*
X107172319Y-42870953D01*
X107172319Y-42870953D02*
X107124700Y-42966191D01*
X107124700Y-42966191D02*
X107029461Y-43013810D01*
X107029461Y-43013810D02*
X106934223Y-43013810D01*
X106934223Y-43013810D02*
X106838985Y-42966191D01*
X106838985Y-42966191D02*
X106791366Y-42870953D01*
X106791366Y-42870953D02*
X106791366Y-42632858D01*
X106791366Y-42632858D02*
X106743747Y-42537620D01*
X106505652Y-42204286D02*
X106505652Y-41823334D01*
X106172319Y-42061429D02*
X107029461Y-42061429D01*
X107029461Y-42061429D02*
X107124700Y-42013810D01*
X107124700Y-42013810D02*
X107172319Y-41918572D01*
X107172319Y-41918572D02*
X107172319Y-41823334D01*
X106505652Y-41632857D02*
X106505652Y-41251905D01*
X106172319Y-41490000D02*
X107029461Y-41490000D01*
X107029461Y-41490000D02*
X107124700Y-41442381D01*
X107124700Y-41442381D02*
X107172319Y-41347143D01*
X107172319Y-41347143D02*
X107172319Y-41251905D01*
X107124700Y-40537619D02*
X107172319Y-40632857D01*
X107172319Y-40632857D02*
X107172319Y-40823333D01*
X107172319Y-40823333D02*
X107124700Y-40918571D01*
X107124700Y-40918571D02*
X107029461Y-40966190D01*
X107029461Y-40966190D02*
X106648509Y-40966190D01*
X106648509Y-40966190D02*
X106553271Y-40918571D01*
X106553271Y-40918571D02*
X106505652Y-40823333D01*
X106505652Y-40823333D02*
X106505652Y-40632857D01*
X106505652Y-40632857D02*
X106553271Y-40537619D01*
X106553271Y-40537619D02*
X106648509Y-40490000D01*
X106648509Y-40490000D02*
X106743747Y-40490000D01*
X106743747Y-40490000D02*
X106838985Y-40966190D01*
X107172319Y-40061428D02*
X106505652Y-40061428D01*
X106696128Y-40061428D02*
X106600890Y-40013809D01*
X106600890Y-40013809D02*
X106553271Y-39966190D01*
X106553271Y-39966190D02*
X106505652Y-39870952D01*
X106505652Y-39870952D02*
X106505652Y-39775714D01*
X106505652Y-39537618D02*
X107172319Y-39299523D01*
X106505652Y-39061428D02*
X107172319Y-39299523D01*
X107172319Y-39299523D02*
X107410414Y-39394761D01*
X107410414Y-39394761D02*
X107458033Y-39442380D01*
X107458033Y-39442380D02*
X107505652Y-39537618D01*
X107077080Y-37347142D02*
X107124700Y-37394761D01*
X107124700Y-37394761D02*
X107172319Y-37537618D01*
X107172319Y-37537618D02*
X107172319Y-37632856D01*
X107172319Y-37632856D02*
X107124700Y-37775713D01*
X107124700Y-37775713D02*
X107029461Y-37870951D01*
X107029461Y-37870951D02*
X106934223Y-37918570D01*
X106934223Y-37918570D02*
X106743747Y-37966189D01*
X106743747Y-37966189D02*
X106600890Y-37966189D01*
X106600890Y-37966189D02*
X106410414Y-37918570D01*
X106410414Y-37918570D02*
X106315176Y-37870951D01*
X106315176Y-37870951D02*
X106219938Y-37775713D01*
X106219938Y-37775713D02*
X106172319Y-37632856D01*
X106172319Y-37632856D02*
X106172319Y-37537618D01*
X106172319Y-37537618D02*
X106219938Y-37394761D01*
X106219938Y-37394761D02*
X106267557Y-37347142D01*
X107172319Y-36918570D02*
X106172319Y-36918570D01*
X107172319Y-36489999D02*
X106648509Y-36489999D01*
X106648509Y-36489999D02*
X106553271Y-36537618D01*
X106553271Y-36537618D02*
X106505652Y-36632856D01*
X106505652Y-36632856D02*
X106505652Y-36775713D01*
X106505652Y-36775713D02*
X106553271Y-36870951D01*
X106553271Y-36870951D02*
X106600890Y-36918570D01*
X107172319Y-35585237D02*
X106648509Y-35585237D01*
X106648509Y-35585237D02*
X106553271Y-35632856D01*
X106553271Y-35632856D02*
X106505652Y-35728094D01*
X106505652Y-35728094D02*
X106505652Y-35918570D01*
X106505652Y-35918570D02*
X106553271Y-36013808D01*
X107124700Y-35585237D02*
X107172319Y-35680475D01*
X107172319Y-35680475D02*
X107172319Y-35918570D01*
X107172319Y-35918570D02*
X107124700Y-36013808D01*
X107124700Y-36013808D02*
X107029461Y-36061427D01*
X107029461Y-36061427D02*
X106934223Y-36061427D01*
X106934223Y-36061427D02*
X106838985Y-36013808D01*
X106838985Y-36013808D02*
X106791366Y-35918570D01*
X106791366Y-35918570D02*
X106791366Y-35680475D01*
X106791366Y-35680475D02*
X106743747Y-35585237D01*
X107172319Y-35109046D02*
X106505652Y-35109046D01*
X106696128Y-35109046D02*
X106600890Y-35061427D01*
X106600890Y-35061427D02*
X106553271Y-35013808D01*
X106553271Y-35013808D02*
X106505652Y-34918570D01*
X106505652Y-34918570D02*
X106505652Y-34823332D01*
X106505652Y-34061427D02*
X107315176Y-34061427D01*
X107315176Y-34061427D02*
X107410414Y-34109046D01*
X107410414Y-34109046D02*
X107458033Y-34156665D01*
X107458033Y-34156665D02*
X107505652Y-34251903D01*
X107505652Y-34251903D02*
X107505652Y-34394760D01*
X107505652Y-34394760D02*
X107458033Y-34489998D01*
X107124700Y-34061427D02*
X107172319Y-34156665D01*
X107172319Y-34156665D02*
X107172319Y-34347141D01*
X107172319Y-34347141D02*
X107124700Y-34442379D01*
X107124700Y-34442379D02*
X107077080Y-34489998D01*
X107077080Y-34489998D02*
X106981842Y-34537617D01*
X106981842Y-34537617D02*
X106696128Y-34537617D01*
X106696128Y-34537617D02*
X106600890Y-34489998D01*
X106600890Y-34489998D02*
X106553271Y-34442379D01*
X106553271Y-34442379D02*
X106505652Y-34347141D01*
X106505652Y-34347141D02*
X106505652Y-34156665D01*
X106505652Y-34156665D02*
X106553271Y-34061427D01*
X107124700Y-33204284D02*
X107172319Y-33299522D01*
X107172319Y-33299522D02*
X107172319Y-33489998D01*
X107172319Y-33489998D02*
X107124700Y-33585236D01*
X107124700Y-33585236D02*
X107029461Y-33632855D01*
X107029461Y-33632855D02*
X106648509Y-33632855D01*
X106648509Y-33632855D02*
X106553271Y-33585236D01*
X106553271Y-33585236D02*
X106505652Y-33489998D01*
X106505652Y-33489998D02*
X106505652Y-33299522D01*
X106505652Y-33299522D02*
X106553271Y-33204284D01*
X106553271Y-33204284D02*
X106648509Y-33156665D01*
X106648509Y-33156665D02*
X106743747Y-33156665D01*
X106743747Y-33156665D02*
X106838985Y-33632855D01*
X107172319Y-32728093D02*
X106505652Y-32728093D01*
X106696128Y-32728093D02*
X106600890Y-32680474D01*
X106600890Y-32680474D02*
X106553271Y-32632855D01*
X106553271Y-32632855D02*
X106505652Y-32537617D01*
X106505652Y-32537617D02*
X106505652Y-32442379D01*
X107172319Y-30823331D02*
X107172319Y-31394759D01*
X107172319Y-31109045D02*
X106172319Y-31109045D01*
X106172319Y-31109045D02*
X106315176Y-31204283D01*
X106315176Y-31204283D02*
X106410414Y-31299521D01*
X106410414Y-31299521D02*
X106458033Y-31394759D01*
X106886604Y-30442378D02*
X106886604Y-29966188D01*
X107172319Y-30537616D02*
X106172319Y-30204283D01*
X106172319Y-30204283D02*
X107172319Y-29870950D01*
X110972319Y-26132857D02*
X110972319Y-26609047D01*
X110972319Y-26609047D02*
X111448509Y-26656666D01*
X111448509Y-26656666D02*
X111400890Y-26609047D01*
X111400890Y-26609047D02*
X111353271Y-26513809D01*
X111353271Y-26513809D02*
X111353271Y-26275714D01*
X111353271Y-26275714D02*
X111400890Y-26180476D01*
X111400890Y-26180476D02*
X111448509Y-26132857D01*
X111448509Y-26132857D02*
X111543747Y-26085238D01*
X111543747Y-26085238D02*
X111781842Y-26085238D01*
X111781842Y-26085238D02*
X111877080Y-26132857D01*
X111877080Y-26132857D02*
X111924700Y-26180476D01*
X111924700Y-26180476D02*
X111972319Y-26275714D01*
X111972319Y-26275714D02*
X111972319Y-26513809D01*
X111972319Y-26513809D02*
X111924700Y-26609047D01*
X111924700Y-26609047D02*
X111877080Y-26656666D01*
X111305652Y-25751904D02*
X111972319Y-25513809D01*
X111972319Y-25513809D02*
X111305652Y-25275714D01*
X102848509Y-46537618D02*
X102896128Y-46394761D01*
X102896128Y-46394761D02*
X102943747Y-46347142D01*
X102943747Y-46347142D02*
X103038985Y-46299523D01*
X103038985Y-46299523D02*
X103181842Y-46299523D01*
X103181842Y-46299523D02*
X103277080Y-46347142D01*
X103277080Y-46347142D02*
X103324700Y-46394761D01*
X103324700Y-46394761D02*
X103372319Y-46489999D01*
X103372319Y-46489999D02*
X103372319Y-46870951D01*
X103372319Y-46870951D02*
X102372319Y-46870951D01*
X102372319Y-46870951D02*
X102372319Y-46537618D01*
X102372319Y-46537618D02*
X102419938Y-46442380D01*
X102419938Y-46442380D02*
X102467557Y-46394761D01*
X102467557Y-46394761D02*
X102562795Y-46347142D01*
X102562795Y-46347142D02*
X102658033Y-46347142D01*
X102658033Y-46347142D02*
X102753271Y-46394761D01*
X102753271Y-46394761D02*
X102800890Y-46442380D01*
X102800890Y-46442380D02*
X102848509Y-46537618D01*
X102848509Y-46537618D02*
X102848509Y-46870951D01*
X102991366Y-45870951D02*
X102991366Y-45109047D01*
X98872319Y-46642380D02*
X98872319Y-46451904D01*
X98872319Y-46451904D02*
X98919938Y-46356666D01*
X98919938Y-46356666D02*
X99015176Y-46261428D01*
X99015176Y-46261428D02*
X99205652Y-46213809D01*
X99205652Y-46213809D02*
X99538985Y-46213809D01*
X99538985Y-46213809D02*
X99729461Y-46261428D01*
X99729461Y-46261428D02*
X99824700Y-46356666D01*
X99824700Y-46356666D02*
X99872319Y-46451904D01*
X99872319Y-46451904D02*
X99872319Y-46642380D01*
X99872319Y-46642380D02*
X99824700Y-46737618D01*
X99824700Y-46737618D02*
X99729461Y-46832856D01*
X99729461Y-46832856D02*
X99538985Y-46880475D01*
X99538985Y-46880475D02*
X99205652Y-46880475D01*
X99205652Y-46880475D02*
X99015176Y-46832856D01*
X99015176Y-46832856D02*
X98919938Y-46737618D01*
X98919938Y-46737618D02*
X98872319Y-46642380D01*
X99205652Y-45356666D02*
X99872319Y-45356666D01*
X99205652Y-45785237D02*
X99729461Y-45785237D01*
X99729461Y-45785237D02*
X99824700Y-45737618D01*
X99824700Y-45737618D02*
X99872319Y-45642380D01*
X99872319Y-45642380D02*
X99872319Y-45499523D01*
X99872319Y-45499523D02*
X99824700Y-45404285D01*
X99824700Y-45404285D02*
X99777080Y-45356666D01*
X99205652Y-45023332D02*
X99205652Y-44642380D01*
X98872319Y-44880475D02*
X99729461Y-44880475D01*
X99729461Y-44880475D02*
X99824700Y-44832856D01*
X99824700Y-44832856D02*
X99872319Y-44737618D01*
X99872319Y-44737618D02*
X99872319Y-44642380D01*
X99491366Y-44309046D02*
X99491366Y-43547142D01*
X99573866Y-28670951D02*
X99573866Y-27909047D01*
X114091366Y-28570951D02*
X114091366Y-27809047D01*
X114472319Y-28189999D02*
X113710414Y-28189999D01*
X110448509Y-46537618D02*
X110496128Y-46394761D01*
X110496128Y-46394761D02*
X110543747Y-46347142D01*
X110543747Y-46347142D02*
X110638985Y-46299523D01*
X110638985Y-46299523D02*
X110781842Y-46299523D01*
X110781842Y-46299523D02*
X110877080Y-46347142D01*
X110877080Y-46347142D02*
X110924700Y-46394761D01*
X110924700Y-46394761D02*
X110972319Y-46489999D01*
X110972319Y-46489999D02*
X110972319Y-46870951D01*
X110972319Y-46870951D02*
X109972319Y-46870951D01*
X109972319Y-46870951D02*
X109972319Y-46537618D01*
X109972319Y-46537618D02*
X110019938Y-46442380D01*
X110019938Y-46442380D02*
X110067557Y-46394761D01*
X110067557Y-46394761D02*
X110162795Y-46347142D01*
X110162795Y-46347142D02*
X110258033Y-46347142D01*
X110258033Y-46347142D02*
X110353271Y-46394761D01*
X110353271Y-46394761D02*
X110400890Y-46442380D01*
X110400890Y-46442380D02*
X110448509Y-46537618D01*
X110448509Y-46537618D02*
X110448509Y-46870951D01*
X110591366Y-45870951D02*
X110591366Y-45109047D01*
X110972319Y-45489999D02*
X110210414Y-45489999D01*
X105255595Y-25344819D02*
X105255595Y-26154342D01*
X105255595Y-26154342D02*
X105303214Y-26249580D01*
X105303214Y-26249580D02*
X105350833Y-26297200D01*
X105350833Y-26297200D02*
X105446071Y-26344819D01*
X105446071Y-26344819D02*
X105636547Y-26344819D01*
X105636547Y-26344819D02*
X105731785Y-26297200D01*
X105731785Y-26297200D02*
X105779404Y-26249580D01*
X105779404Y-26249580D02*
X105827023Y-26154342D01*
X105827023Y-26154342D02*
X105827023Y-25344819D01*
X106255595Y-26297200D02*
X106398452Y-26344819D01*
X106398452Y-26344819D02*
X106636547Y-26344819D01*
X106636547Y-26344819D02*
X106731785Y-26297200D01*
X106731785Y-26297200D02*
X106779404Y-26249580D01*
X106779404Y-26249580D02*
X106827023Y-26154342D01*
X106827023Y-26154342D02*
X106827023Y-26059104D01*
X106827023Y-26059104D02*
X106779404Y-25963866D01*
X106779404Y-25963866D02*
X106731785Y-25916247D01*
X106731785Y-25916247D02*
X106636547Y-25868628D01*
X106636547Y-25868628D02*
X106446071Y-25821009D01*
X106446071Y-25821009D02*
X106350833Y-25773390D01*
X106350833Y-25773390D02*
X106303214Y-25725771D01*
X106303214Y-25725771D02*
X106255595Y-25630533D01*
X106255595Y-25630533D02*
X106255595Y-25535295D01*
X106255595Y-25535295D02*
X106303214Y-25440057D01*
X106303214Y-25440057D02*
X106350833Y-25392438D01*
X106350833Y-25392438D02*
X106446071Y-25344819D01*
X106446071Y-25344819D02*
X106684166Y-25344819D01*
X106684166Y-25344819D02*
X106827023Y-25392438D01*
X107588928Y-25821009D02*
X107731785Y-25868628D01*
X107731785Y-25868628D02*
X107779404Y-25916247D01*
X107779404Y-25916247D02*
X107827023Y-26011485D01*
X107827023Y-26011485D02*
X107827023Y-26154342D01*
X107827023Y-26154342D02*
X107779404Y-26249580D01*
X107779404Y-26249580D02*
X107731785Y-26297200D01*
X107731785Y-26297200D02*
X107636547Y-26344819D01*
X107636547Y-26344819D02*
X107255595Y-26344819D01*
X107255595Y-26344819D02*
X107255595Y-25344819D01*
X107255595Y-25344819D02*
X107588928Y-25344819D01*
X107588928Y-25344819D02*
X107684166Y-25392438D01*
X107684166Y-25392438D02*
X107731785Y-25440057D01*
X107731785Y-25440057D02*
X107779404Y-25535295D01*
X107779404Y-25535295D02*
X107779404Y-25630533D01*
X107779404Y-25630533D02*
X107731785Y-25725771D01*
X107731785Y-25725771D02*
X107684166Y-25773390D01*
X107684166Y-25773390D02*
X107588928Y-25821009D01*
X107588928Y-25821009D02*
X107255595Y-25821009D01*
X113472319Y-46642380D02*
X113472319Y-46451904D01*
X113472319Y-46451904D02*
X113519938Y-46356666D01*
X113519938Y-46356666D02*
X113615176Y-46261428D01*
X113615176Y-46261428D02*
X113805652Y-46213809D01*
X113805652Y-46213809D02*
X114138985Y-46213809D01*
X114138985Y-46213809D02*
X114329461Y-46261428D01*
X114329461Y-46261428D02*
X114424700Y-46356666D01*
X114424700Y-46356666D02*
X114472319Y-46451904D01*
X114472319Y-46451904D02*
X114472319Y-46642380D01*
X114472319Y-46642380D02*
X114424700Y-46737618D01*
X114424700Y-46737618D02*
X114329461Y-46832856D01*
X114329461Y-46832856D02*
X114138985Y-46880475D01*
X114138985Y-46880475D02*
X113805652Y-46880475D01*
X113805652Y-46880475D02*
X113615176Y-46832856D01*
X113615176Y-46832856D02*
X113519938Y-46737618D01*
X113519938Y-46737618D02*
X113472319Y-46642380D01*
X113805652Y-45356666D02*
X114472319Y-45356666D01*
X113805652Y-45785237D02*
X114329461Y-45785237D01*
X114329461Y-45785237D02*
X114424700Y-45737618D01*
X114424700Y-45737618D02*
X114472319Y-45642380D01*
X114472319Y-45642380D02*
X114472319Y-45499523D01*
X114472319Y-45499523D02*
X114424700Y-45404285D01*
X114424700Y-45404285D02*
X114377080Y-45356666D01*
X113805652Y-45023332D02*
X113805652Y-44642380D01*
X113472319Y-44880475D02*
X114329461Y-44880475D01*
X114329461Y-44880475D02*
X114424700Y-44832856D01*
X114424700Y-44832856D02*
X114472319Y-44737618D01*
X114472319Y-44737618D02*
X114472319Y-44642380D01*
X114091366Y-44309046D02*
X114091366Y-43547142D01*
X114472319Y-43928094D02*
X113710414Y-43928094D01*
X96134819Y-57129166D02*
X95658628Y-57462499D01*
X96134819Y-57700594D02*
X95134819Y-57700594D01*
X95134819Y-57700594D02*
X95134819Y-57319642D01*
X95134819Y-57319642D02*
X95182438Y-57224404D01*
X95182438Y-57224404D02*
X95230057Y-57176785D01*
X95230057Y-57176785D02*
X95325295Y-57129166D01*
X95325295Y-57129166D02*
X95468152Y-57129166D01*
X95468152Y-57129166D02*
X95563390Y-57176785D01*
X95563390Y-57176785D02*
X95611009Y-57224404D01*
X95611009Y-57224404D02*
X95658628Y-57319642D01*
X95658628Y-57319642D02*
X95658628Y-57700594D01*
X96134819Y-56176785D02*
X96134819Y-56748213D01*
X96134819Y-56462499D02*
X95134819Y-56462499D01*
X95134819Y-56462499D02*
X95277676Y-56557737D01*
X95277676Y-56557737D02*
X95372914Y-56652975D01*
X95372914Y-56652975D02*
X95420533Y-56748213D01*
X88954819Y-40416666D02*
X88478628Y-40749999D01*
X88954819Y-40988094D02*
X87954819Y-40988094D01*
X87954819Y-40988094D02*
X87954819Y-40607142D01*
X87954819Y-40607142D02*
X88002438Y-40511904D01*
X88002438Y-40511904D02*
X88050057Y-40464285D01*
X88050057Y-40464285D02*
X88145295Y-40416666D01*
X88145295Y-40416666D02*
X88288152Y-40416666D01*
X88288152Y-40416666D02*
X88383390Y-40464285D01*
X88383390Y-40464285D02*
X88431009Y-40511904D01*
X88431009Y-40511904D02*
X88478628Y-40607142D01*
X88478628Y-40607142D02*
X88478628Y-40988094D01*
X88050057Y-40035713D02*
X88002438Y-39988094D01*
X88002438Y-39988094D02*
X87954819Y-39892856D01*
X87954819Y-39892856D02*
X87954819Y-39654761D01*
X87954819Y-39654761D02*
X88002438Y-39559523D01*
X88002438Y-39559523D02*
X88050057Y-39511904D01*
X88050057Y-39511904D02*
X88145295Y-39464285D01*
X88145295Y-39464285D02*
X88240533Y-39464285D01*
X88240533Y-39464285D02*
X88383390Y-39511904D01*
X88383390Y-39511904D02*
X88954819Y-40083332D01*
X88954819Y-40083332D02*
X88954819Y-39464285D01*
X118859580Y-66416666D02*
X118907200Y-66464285D01*
X118907200Y-66464285D02*
X118954819Y-66607142D01*
X118954819Y-66607142D02*
X118954819Y-66702380D01*
X118954819Y-66702380D02*
X118907200Y-66845237D01*
X118907200Y-66845237D02*
X118811961Y-66940475D01*
X118811961Y-66940475D02*
X118716723Y-66988094D01*
X118716723Y-66988094D02*
X118526247Y-67035713D01*
X118526247Y-67035713D02*
X118383390Y-67035713D01*
X118383390Y-67035713D02*
X118192914Y-66988094D01*
X118192914Y-66988094D02*
X118097676Y-66940475D01*
X118097676Y-66940475D02*
X118002438Y-66845237D01*
X118002438Y-66845237D02*
X117954819Y-66702380D01*
X117954819Y-66702380D02*
X117954819Y-66607142D01*
X117954819Y-66607142D02*
X118002438Y-66464285D01*
X118002438Y-66464285D02*
X118050057Y-66416666D01*
X118954819Y-65464285D02*
X118954819Y-66035713D01*
X118954819Y-65749999D02*
X117954819Y-65749999D01*
X117954819Y-65749999D02*
X118097676Y-65845237D01*
X118097676Y-65845237D02*
X118192914Y-65940475D01*
X118192914Y-65940475D02*
X118240533Y-66035713D01*
X92509819Y-57129166D02*
X92033628Y-57462499D01*
X92509819Y-57700594D02*
X91509819Y-57700594D01*
X91509819Y-57700594D02*
X91509819Y-57319642D01*
X91509819Y-57319642D02*
X91557438Y-57224404D01*
X91557438Y-57224404D02*
X91605057Y-57176785D01*
X91605057Y-57176785D02*
X91700295Y-57129166D01*
X91700295Y-57129166D02*
X91843152Y-57129166D01*
X91843152Y-57129166D02*
X91938390Y-57176785D01*
X91938390Y-57176785D02*
X91986009Y-57224404D01*
X91986009Y-57224404D02*
X92033628Y-57319642D01*
X92033628Y-57319642D02*
X92033628Y-57700594D01*
X91509819Y-56272023D02*
X91509819Y-56462499D01*
X91509819Y-56462499D02*
X91557438Y-56557737D01*
X91557438Y-56557737D02*
X91605057Y-56605356D01*
X91605057Y-56605356D02*
X91747914Y-56700594D01*
X91747914Y-56700594D02*
X91938390Y-56748213D01*
X91938390Y-56748213D02*
X92319342Y-56748213D01*
X92319342Y-56748213D02*
X92414580Y-56700594D01*
X92414580Y-56700594D02*
X92462200Y-56652975D01*
X92462200Y-56652975D02*
X92509819Y-56557737D01*
X92509819Y-56557737D02*
X92509819Y-56367261D01*
X92509819Y-56367261D02*
X92462200Y-56272023D01*
X92462200Y-56272023D02*
X92414580Y-56224404D01*
X92414580Y-56224404D02*
X92319342Y-56176785D01*
X92319342Y-56176785D02*
X92081247Y-56176785D01*
X92081247Y-56176785D02*
X91986009Y-56224404D01*
X91986009Y-56224404D02*
X91938390Y-56272023D01*
X91938390Y-56272023D02*
X91890771Y-56367261D01*
X91890771Y-56367261D02*
X91890771Y-56557737D01*
X91890771Y-56557737D02*
X91938390Y-56652975D01*
X91938390Y-56652975D02*
X91986009Y-56700594D01*
X91986009Y-56700594D02*
X92081247Y-56748213D01*
D11*
%TO.C,BT1*%
X60410000Y-75302500D02*
X138590000Y-75302500D01*
X60410000Y-97502500D02*
X60410000Y-75302500D01*
X138590000Y-75302500D02*
X138590000Y-97502500D01*
X138590000Y-97502500D02*
X60410000Y-97502500D01*
%TO.C,D1*%
X131500000Y-46410000D02*
X131500000Y-45390000D01*
X130030000Y-44610000D02*
X132970000Y-44610000D01*
X130030000Y-44490000D02*
X132970000Y-44490000D01*
X130030000Y-44370000D02*
X132970000Y-44370000D01*
X131500000Y-38930000D02*
X131500000Y-39950000D01*
X130030000Y-45390000D02*
X132970000Y-45390000D01*
X132970000Y-39950000D01*
X130030000Y-39950000D01*
X130030000Y-45390000D01*
%TO.C,U2*%
X90470000Y-71782500D02*
X90470000Y-70402500D01*
X91850000Y-71782500D02*
X90470000Y-71782500D01*
X93120000Y-69022500D02*
X98310000Y-69022500D01*
X93120000Y-71782500D02*
X93120000Y-69022500D01*
X93120000Y-71782500D02*
X98310000Y-71782500D01*
X98310000Y-71782500D02*
X98310000Y-69022500D01*
%TO.C,J3*%
X55670000Y-82690000D02*
X55670000Y-92910000D01*
X55670000Y-82690000D02*
X58330000Y-82690000D01*
X55670000Y-92910000D02*
X58330000Y-92910000D01*
X57000000Y-80090000D02*
X58330000Y-80090000D01*
X58330000Y-80090000D02*
X58330000Y-81420000D01*
X58330000Y-82690000D02*
X58330000Y-92910000D01*
%TO.C,Q2*%
X68400000Y-57970000D02*
X68400000Y-61570000D01*
X68411522Y-57931522D02*
G75*
G02*
X72850001Y-59770000I1838478J-1838478D01*
G01*
X72850000Y-59770000D02*
G75*
G02*
X68411522Y-61608478I-2600000J0D01*
G01*
%TO.C,U3*%
X118235000Y-29602500D02*
X118235000Y-45472500D01*
X120320000Y-29602500D02*
X120320000Y-27162500D01*
X121290000Y-29602500D02*
X121290000Y-27162500D01*
X122860000Y-29602500D02*
X122860000Y-27162500D01*
X123830000Y-29602500D02*
X123830000Y-27162500D01*
X125400000Y-29602500D02*
X125400000Y-27162500D01*
X126370000Y-29602500D02*
X126370000Y-27162500D01*
X128455000Y-29602500D02*
X118235000Y-29602500D01*
X128455000Y-29602500D02*
X128455000Y-45472500D01*
X128455000Y-45472500D02*
X118235000Y-45472500D01*
%TO.C,R3*%
X88305000Y-54092500D02*
X88305000Y-55042500D01*
X88305000Y-59832500D02*
X88305000Y-58882500D01*
X89225000Y-55042500D02*
X87385000Y-55042500D01*
X87385000Y-58882500D01*
X89225000Y-58882500D01*
X89225000Y-55042500D01*
%TO.C,C4*%
X115912789Y-55727500D02*
X116662789Y-55727500D01*
X116287789Y-55352500D02*
X116287789Y-56102500D01*
X120055000Y-54072500D02*
X120055000Y-61732500D01*
X120095000Y-54072500D02*
X120095000Y-61732500D01*
X120135000Y-54073500D02*
X120135000Y-61731500D01*
X120175000Y-54074500D02*
X120175000Y-61730500D01*
X120215000Y-54075500D02*
X120215000Y-61729500D01*
X120255000Y-54077500D02*
X120255000Y-61727500D01*
X120295000Y-54079500D02*
X120295000Y-56862500D01*
X120295000Y-58942500D02*
X120295000Y-61725500D01*
X120335000Y-54082500D02*
X120335000Y-56862500D01*
X120335000Y-58942500D02*
X120335000Y-61722500D01*
X120375000Y-54085500D02*
X120375000Y-56862500D01*
X120375000Y-58942500D02*
X120375000Y-61719500D01*
X120415000Y-54089500D02*
X120415000Y-56862500D01*
X120415000Y-58942500D02*
X120415000Y-61715500D01*
X120455000Y-54093500D02*
X120455000Y-56862500D01*
X120455000Y-58942500D02*
X120455000Y-61711500D01*
X120495000Y-54097500D02*
X120495000Y-56862500D01*
X120495000Y-58942500D02*
X120495000Y-61707500D01*
X120535000Y-54102500D02*
X120535000Y-56862500D01*
X120535000Y-58942500D02*
X120535000Y-61702500D01*
X120575000Y-54107500D02*
X120575000Y-56862500D01*
X120575000Y-58942500D02*
X120575000Y-61697500D01*
X120615000Y-54113500D02*
X120615000Y-56862500D01*
X120615000Y-58942500D02*
X120615000Y-61691500D01*
X120655000Y-54119500D02*
X120655000Y-56862500D01*
X120655000Y-58942500D02*
X120655000Y-61685500D01*
X120695000Y-54125500D02*
X120695000Y-56862500D01*
X120695000Y-58942500D02*
X120695000Y-61679500D01*
X120735000Y-54132500D02*
X120735000Y-56862500D01*
X120735000Y-58942500D02*
X120735000Y-61672500D01*
X120775000Y-54140500D02*
X120775000Y-56862500D01*
X120775000Y-58942500D02*
X120775000Y-61664500D01*
X120815000Y-54147500D02*
X120815000Y-56862500D01*
X120815000Y-58942500D02*
X120815000Y-61657500D01*
X120855000Y-54156500D02*
X120855000Y-56862500D01*
X120855000Y-58942500D02*
X120855000Y-61648500D01*
X120895000Y-54164500D02*
X120895000Y-56862500D01*
X120895000Y-58942500D02*
X120895000Y-61640500D01*
X120935000Y-54173500D02*
X120935000Y-56862500D01*
X120935000Y-58942500D02*
X120935000Y-61631500D01*
X120975000Y-54183500D02*
X120975000Y-56862500D01*
X120975000Y-58942500D02*
X120975000Y-61621500D01*
X121015000Y-54193500D02*
X121015000Y-56862500D01*
X121015000Y-58942500D02*
X121015000Y-61611500D01*
X121055000Y-54203500D02*
X121055000Y-56862500D01*
X121055000Y-58942500D02*
X121055000Y-61601500D01*
X121095000Y-54214500D02*
X121095000Y-56862500D01*
X121095000Y-58942500D02*
X121095000Y-61590500D01*
X121135000Y-54226500D02*
X121135000Y-56862500D01*
X121135000Y-58942500D02*
X121135000Y-61578500D01*
X121175000Y-54238500D02*
X121175000Y-56862500D01*
X121175000Y-58942500D02*
X121175000Y-61566500D01*
X121215000Y-54250500D02*
X121215000Y-56862500D01*
X121215000Y-58942500D02*
X121215000Y-61554500D01*
X121255000Y-54263500D02*
X121255000Y-56862500D01*
X121255000Y-58942500D02*
X121255000Y-61541500D01*
X121295000Y-54276500D02*
X121295000Y-56862500D01*
X121295000Y-58942500D02*
X121295000Y-61528500D01*
X121335000Y-54290500D02*
X121335000Y-56862500D01*
X121335000Y-58942500D02*
X121335000Y-61514500D01*
X121375000Y-54304500D02*
X121375000Y-56862500D01*
X121375000Y-58942500D02*
X121375000Y-61500500D01*
X121415000Y-54319500D02*
X121415000Y-56862500D01*
X121415000Y-58942500D02*
X121415000Y-61485500D01*
X121455000Y-54334500D02*
X121455000Y-56862500D01*
X121455000Y-58942500D02*
X121455000Y-61470500D01*
X121495000Y-54350500D02*
X121495000Y-56862500D01*
X121495000Y-58942500D02*
X121495000Y-61454500D01*
X121535000Y-54366500D02*
X121535000Y-56862500D01*
X121535000Y-58942500D02*
X121535000Y-61438500D01*
X121575000Y-54383500D02*
X121575000Y-56862500D01*
X121575000Y-58942500D02*
X121575000Y-61421500D01*
X121615000Y-54400500D02*
X121615000Y-56862500D01*
X121615000Y-58942500D02*
X121615000Y-61404500D01*
X121655000Y-54418500D02*
X121655000Y-56862500D01*
X121655000Y-58942500D02*
X121655000Y-61386500D01*
X121695000Y-54437500D02*
X121695000Y-56862500D01*
X121695000Y-58942500D02*
X121695000Y-61367500D01*
X121735000Y-54456500D02*
X121735000Y-56862500D01*
X121735000Y-58942500D02*
X121735000Y-61348500D01*
X121775000Y-54475500D02*
X121775000Y-56862500D01*
X121775000Y-58942500D02*
X121775000Y-61329500D01*
X121815000Y-54495500D02*
X121815000Y-56862500D01*
X121815000Y-58942500D02*
X121815000Y-61309500D01*
X121855000Y-54516500D02*
X121855000Y-56862500D01*
X121855000Y-58942500D02*
X121855000Y-61288500D01*
X121895000Y-54537500D02*
X121895000Y-56862500D01*
X121895000Y-58942500D02*
X121895000Y-61267500D01*
X121935000Y-54559500D02*
X121935000Y-56862500D01*
X121935000Y-58942500D02*
X121935000Y-61245500D01*
X121975000Y-54582500D02*
X121975000Y-56862500D01*
X121975000Y-58942500D02*
X121975000Y-61222500D01*
X122015000Y-54605500D02*
X122015000Y-56862500D01*
X122015000Y-58942500D02*
X122015000Y-61199500D01*
X122055000Y-54629500D02*
X122055000Y-56862500D01*
X122055000Y-58942500D02*
X122055000Y-61175500D01*
X122095000Y-54653500D02*
X122095000Y-56862500D01*
X122095000Y-58942500D02*
X122095000Y-61151500D01*
X122135000Y-54678500D02*
X122135000Y-56862500D01*
X122135000Y-58942500D02*
X122135000Y-61126500D01*
X122175000Y-54704500D02*
X122175000Y-56862500D01*
X122175000Y-58942500D02*
X122175000Y-61100500D01*
X122215000Y-54731500D02*
X122215000Y-56862500D01*
X122215000Y-58942500D02*
X122215000Y-61073500D01*
X122255000Y-54758500D02*
X122255000Y-56862500D01*
X122255000Y-58942500D02*
X122255000Y-61046500D01*
X122295000Y-54786500D02*
X122295000Y-56862500D01*
X122295000Y-58942500D02*
X122295000Y-61018500D01*
X122335000Y-54815500D02*
X122335000Y-56862500D01*
X122335000Y-58942500D02*
X122335000Y-60989500D01*
X122375000Y-54845500D02*
X122375000Y-60959500D01*
X122415000Y-54875500D02*
X122415000Y-60929500D01*
X122455000Y-54906500D02*
X122455000Y-60898500D01*
X122495000Y-54938500D02*
X122495000Y-60866500D01*
X122535000Y-54971500D02*
X122535000Y-60833500D01*
X122575000Y-55005500D02*
X122575000Y-60799500D01*
X122615000Y-55040500D02*
X122615000Y-60764500D01*
X122655000Y-55075500D02*
X122655000Y-60729500D01*
X122695000Y-55112500D02*
X122695000Y-60692500D01*
X122735000Y-55150500D02*
X122735000Y-60654500D01*
X122775000Y-55189500D02*
X122775000Y-60615500D01*
X122815000Y-55229500D02*
X122815000Y-60575500D01*
X122855000Y-55271500D02*
X122855000Y-60533500D01*
X122895000Y-55313500D02*
X122895000Y-60491500D01*
X122935000Y-55357500D02*
X122935000Y-60447500D01*
X122975000Y-55402500D02*
X122975000Y-60402500D01*
X123015000Y-55449500D02*
X123015000Y-60355500D01*
X123055000Y-55497500D02*
X123055000Y-60307500D01*
X123095000Y-55547500D02*
X123095000Y-60257500D01*
X123135000Y-55599500D02*
X123135000Y-60205500D01*
X123175000Y-55652500D02*
X123175000Y-60152500D01*
X123215000Y-55708500D02*
X123215000Y-60096500D01*
X123255000Y-55766500D02*
X123255000Y-60038500D01*
X123295000Y-55826500D02*
X123295000Y-59978500D01*
X123335000Y-55888500D02*
X123335000Y-59916500D01*
X123375000Y-55953500D02*
X123375000Y-59851500D01*
X123415000Y-56022500D02*
X123415000Y-59782500D01*
X123455000Y-56094500D02*
X123455000Y-59710500D01*
X123495000Y-56169500D02*
X123495000Y-59635500D01*
X123535000Y-56249500D02*
X123535000Y-59555500D01*
X123575000Y-56334500D02*
X123575000Y-59470500D01*
X123615000Y-56424500D02*
X123615000Y-59380500D01*
X123655000Y-56522500D02*
X123655000Y-59282500D01*
X123695000Y-56628500D02*
X123695000Y-59176500D01*
X123735000Y-56744500D02*
X123735000Y-59060500D01*
X123775000Y-56875500D02*
X123775000Y-58929500D01*
X123815000Y-57026500D02*
X123815000Y-58778500D01*
X123855000Y-57209500D02*
X123855000Y-58595500D01*
X123895000Y-57461500D02*
X123895000Y-58343500D01*
X123925000Y-57902500D02*
G75*
G02*
X116185000Y-57902500I-3870000J0D01*
G01*
X116185000Y-57902500D02*
G75*
G02*
X123925000Y-57902500I3870000J0D01*
G01*
%TO.C,U4*%
X55725000Y-63652500D02*
X55725000Y-30572500D01*
X55725000Y-66252500D02*
X55725000Y-64922500D01*
X57055000Y-66252500D02*
X55725000Y-66252500D01*
X58385000Y-30572500D02*
X55725000Y-30572500D01*
X58385000Y-63652500D02*
X55725000Y-63652500D01*
X58385000Y-63652500D02*
X58385000Y-30572500D01*
%TO.C,R7*%
X67750000Y-65630000D02*
X67750000Y-66580000D01*
X67750000Y-71370000D02*
X67750000Y-70420000D01*
X66830000Y-70420000D02*
X68670000Y-70420000D01*
X68670000Y-66580000D01*
X66830000Y-66580000D01*
X66830000Y-70420000D01*
%TO.C,Q1*%
X87085000Y-62802500D02*
X83485000Y-62802500D01*
X85285000Y-67252500D02*
G75*
G02*
X83446522Y-62814022I0J2600000D01*
G01*
X87123478Y-62814022D02*
G75*
G02*
X85285000Y-67252501I-1838478J-1838478D01*
G01*
%TO.C,R8*%
X76250000Y-54190000D02*
X76250000Y-55140000D01*
X76250000Y-59930000D02*
X76250000Y-58980000D01*
X75330000Y-58980000D02*
X77170000Y-58980000D01*
X77170000Y-55140000D01*
X75330000Y-55140000D01*
X75330000Y-58980000D01*
%TO.C,R4*%
X84430000Y-54032500D02*
X84430000Y-54982500D01*
X84430000Y-59772500D02*
X84430000Y-58822500D01*
X85350000Y-54982500D02*
X83510000Y-54982500D01*
X83510000Y-58822500D01*
X85350000Y-58822500D01*
X85350000Y-54982500D01*
%TO.C,C2*%
X127810000Y-63782500D02*
X130550000Y-63782500D01*
X127810000Y-69022500D02*
X127810000Y-63782500D01*
X130550000Y-63782500D02*
X130550000Y-69022500D01*
X130550000Y-69022500D02*
X127810000Y-69022500D01*
%TO.C,R5*%
X100425000Y-71782500D02*
X100425000Y-70402500D01*
X101805000Y-71782500D02*
X100425000Y-71782500D01*
X103075000Y-69022500D02*
X105725000Y-69022500D01*
X103075000Y-71782500D02*
X103075000Y-69022500D01*
X103075000Y-71782500D02*
X105725000Y-71782500D01*
X105725000Y-71782500D02*
X105725000Y-69022500D01*
%TO.C,J1*%
X139630000Y-38905000D02*
X138250000Y-38905000D01*
X139630000Y-37525000D02*
X139630000Y-38905000D01*
X139630000Y-36255000D02*
X139630000Y-33605000D01*
X139630000Y-36255000D02*
X136870000Y-36255000D01*
X139630000Y-33605000D02*
X136870000Y-33605000D01*
X136870000Y-36255000D02*
X136870000Y-33605000D01*
%TO.C,C3*%
X126465000Y-58343500D02*
X126465000Y-57461500D01*
X126505000Y-58595500D02*
X126505000Y-57209500D01*
X126545000Y-58778500D02*
X126545000Y-57026500D01*
X126585000Y-58929500D02*
X126585000Y-56875500D01*
X126625000Y-59060500D02*
X126625000Y-56744500D01*
X126665000Y-59176500D02*
X126665000Y-56628500D01*
X126705000Y-59282500D02*
X126705000Y-56522500D01*
X126745000Y-59380500D02*
X126745000Y-56424500D01*
X126785000Y-59470500D02*
X126785000Y-56334500D01*
X126825000Y-59555500D02*
X126825000Y-56249500D01*
X126865000Y-59635500D02*
X126865000Y-56169500D01*
X126905000Y-59710500D02*
X126905000Y-56094500D01*
X126945000Y-59782500D02*
X126945000Y-56022500D01*
X126985000Y-59851500D02*
X126985000Y-55953500D01*
X127025000Y-59916500D02*
X127025000Y-55888500D01*
X127065000Y-59978500D02*
X127065000Y-55826500D01*
X127105000Y-60038500D02*
X127105000Y-55766500D01*
X127145000Y-60096500D02*
X127145000Y-55708500D01*
X127185000Y-60152500D02*
X127185000Y-55652500D01*
X127225000Y-60205500D02*
X127225000Y-55599500D01*
X127265000Y-60257500D02*
X127265000Y-55547500D01*
X127305000Y-60307500D02*
X127305000Y-55497500D01*
X127345000Y-60355500D02*
X127345000Y-55449500D01*
X127385000Y-60402500D02*
X127385000Y-55402500D01*
X127425000Y-60447500D02*
X127425000Y-55357500D01*
X127465000Y-60491500D02*
X127465000Y-55313500D01*
X127505000Y-60533500D02*
X127505000Y-55271500D01*
X127545000Y-60575500D02*
X127545000Y-55229500D01*
X127585000Y-60615500D02*
X127585000Y-55189500D01*
X127625000Y-60654500D02*
X127625000Y-55150500D01*
X127665000Y-60692500D02*
X127665000Y-55112500D01*
X127705000Y-60729500D02*
X127705000Y-55075500D01*
X127745000Y-60764500D02*
X127745000Y-55040500D01*
X127785000Y-60799500D02*
X127785000Y-55005500D01*
X127825000Y-60833500D02*
X127825000Y-54971500D01*
X127865000Y-60866500D02*
X127865000Y-54938500D01*
X127905000Y-60898500D02*
X127905000Y-54906500D01*
X127945000Y-60929500D02*
X127945000Y-54875500D01*
X127985000Y-60959500D02*
X127985000Y-54845500D01*
X128025000Y-56862500D02*
X128025000Y-54815500D01*
X128025000Y-60989500D02*
X128025000Y-58942500D01*
X128065000Y-56862500D02*
X128065000Y-54786500D01*
X128065000Y-61018500D02*
X128065000Y-58942500D01*
X128105000Y-56862500D02*
X128105000Y-54758500D01*
X128105000Y-61046500D02*
X128105000Y-58942500D01*
X128145000Y-56862500D02*
X128145000Y-54731500D01*
X128145000Y-61073500D02*
X128145000Y-58942500D01*
X128185000Y-56862500D02*
X128185000Y-54704500D01*
X128185000Y-61100500D02*
X128185000Y-58942500D01*
X128225000Y-56862500D02*
X128225000Y-54678500D01*
X128225000Y-61126500D02*
X128225000Y-58942500D01*
X128265000Y-56862500D02*
X128265000Y-54653500D01*
X128265000Y-61151500D02*
X128265000Y-58942500D01*
X128305000Y-56862500D02*
X128305000Y-54629500D01*
X128305000Y-61175500D02*
X128305000Y-58942500D01*
X128345000Y-56862500D02*
X128345000Y-54605500D01*
X128345000Y-61199500D02*
X128345000Y-58942500D01*
X128385000Y-56862500D02*
X128385000Y-54582500D01*
X128385000Y-61222500D02*
X128385000Y-58942500D01*
X128425000Y-56862500D02*
X128425000Y-54559500D01*
X128425000Y-61245500D02*
X128425000Y-58942500D01*
X128465000Y-56862500D02*
X128465000Y-54537500D01*
X128465000Y-61267500D02*
X128465000Y-58942500D01*
X128505000Y-56862500D02*
X128505000Y-54516500D01*
X128505000Y-61288500D02*
X128505000Y-58942500D01*
X128545000Y-56862500D02*
X128545000Y-54495500D01*
X128545000Y-61309500D02*
X128545000Y-58942500D01*
X128585000Y-56862500D02*
X128585000Y-54475500D01*
X128585000Y-61329500D02*
X128585000Y-58942500D01*
X128625000Y-56862500D02*
X128625000Y-54456500D01*
X128625000Y-61348500D02*
X128625000Y-58942500D01*
X128665000Y-56862500D02*
X128665000Y-54437500D01*
X128665000Y-61367500D02*
X128665000Y-58942500D01*
X128705000Y-56862500D02*
X128705000Y-54418500D01*
X128705000Y-61386500D02*
X128705000Y-58942500D01*
X128745000Y-56862500D02*
X128745000Y-54400500D01*
X128745000Y-61404500D02*
X128745000Y-58942500D01*
X128785000Y-56862500D02*
X128785000Y-54383500D01*
X128785000Y-61421500D02*
X128785000Y-58942500D01*
X128825000Y-56862500D02*
X128825000Y-54366500D01*
X128825000Y-61438500D02*
X128825000Y-58942500D01*
X128865000Y-56862500D02*
X128865000Y-54350500D01*
X128865000Y-61454500D02*
X128865000Y-58942500D01*
X128905000Y-56862500D02*
X128905000Y-54334500D01*
X128905000Y-61470500D02*
X128905000Y-58942500D01*
X128945000Y-56862500D02*
X128945000Y-54319500D01*
X128945000Y-61485500D02*
X128945000Y-58942500D01*
X128985000Y-56862500D02*
X128985000Y-54304500D01*
X128985000Y-61500500D02*
X128985000Y-58942500D01*
X129025000Y-56862500D02*
X129025000Y-54290500D01*
X129025000Y-61514500D02*
X129025000Y-58942500D01*
X129065000Y-56862500D02*
X129065000Y-54276500D01*
X129065000Y-61528500D02*
X129065000Y-58942500D01*
X129105000Y-56862500D02*
X129105000Y-54263500D01*
X129105000Y-61541500D02*
X129105000Y-58942500D01*
X129145000Y-56862500D02*
X129145000Y-54250500D01*
X129145000Y-61554500D02*
X129145000Y-58942500D01*
X129185000Y-56862500D02*
X129185000Y-54238500D01*
X129185000Y-61566500D02*
X129185000Y-58942500D01*
X129225000Y-56862500D02*
X129225000Y-54226500D01*
X129225000Y-61578500D02*
X129225000Y-58942500D01*
X129265000Y-56862500D02*
X129265000Y-54214500D01*
X129265000Y-61590500D02*
X129265000Y-58942500D01*
X129305000Y-56862500D02*
X129305000Y-54203500D01*
X129305000Y-61601500D02*
X129305000Y-58942500D01*
X129345000Y-56862500D02*
X129345000Y-54193500D01*
X129345000Y-61611500D02*
X129345000Y-58942500D01*
X129385000Y-56862500D02*
X129385000Y-54183500D01*
X129385000Y-61621500D02*
X129385000Y-58942500D01*
X129425000Y-56862500D02*
X129425000Y-54173500D01*
X129425000Y-61631500D02*
X129425000Y-58942500D01*
X129465000Y-56862500D02*
X129465000Y-54164500D01*
X129465000Y-61640500D02*
X129465000Y-58942500D01*
X129505000Y-56862500D02*
X129505000Y-54156500D01*
X129505000Y-61648500D02*
X129505000Y-58942500D01*
X129545000Y-56862500D02*
X129545000Y-54147500D01*
X129545000Y-61657500D02*
X129545000Y-58942500D01*
X129585000Y-56862500D02*
X129585000Y-54140500D01*
X129585000Y-61664500D02*
X129585000Y-58942500D01*
X129625000Y-56862500D02*
X129625000Y-54132500D01*
X129625000Y-61672500D02*
X129625000Y-58942500D01*
X129665000Y-56862500D02*
X129665000Y-54125500D01*
X129665000Y-61679500D02*
X129665000Y-58942500D01*
X129705000Y-56862500D02*
X129705000Y-54119500D01*
X129705000Y-61685500D02*
X129705000Y-58942500D01*
X129745000Y-56862500D02*
X129745000Y-54113500D01*
X129745000Y-61691500D02*
X129745000Y-58942500D01*
X129785000Y-56862500D02*
X129785000Y-54107500D01*
X129785000Y-61697500D02*
X129785000Y-58942500D01*
X129825000Y-56862500D02*
X129825000Y-54102500D01*
X129825000Y-61702500D02*
X129825000Y-58942500D01*
X129865000Y-56862500D02*
X129865000Y-54097500D01*
X129865000Y-61707500D02*
X129865000Y-58942500D01*
X129905000Y-56862500D02*
X129905000Y-54093500D01*
X129905000Y-61711500D02*
X129905000Y-58942500D01*
X129945000Y-56862500D02*
X129945000Y-54089500D01*
X129945000Y-61715500D02*
X129945000Y-58942500D01*
X129985000Y-56862500D02*
X129985000Y-54085500D01*
X129985000Y-61719500D02*
X129985000Y-58942500D01*
X130025000Y-56862500D02*
X130025000Y-54082500D01*
X130025000Y-61722500D02*
X130025000Y-58942500D01*
X130065000Y-56862500D02*
X130065000Y-54079500D01*
X130065000Y-61725500D02*
X130065000Y-58942500D01*
X130105000Y-61727500D02*
X130105000Y-54077500D01*
X130145000Y-61729500D02*
X130145000Y-54075500D01*
X130185000Y-61730500D02*
X130185000Y-54074500D01*
X130225000Y-61731500D02*
X130225000Y-54073500D01*
X130265000Y-61732500D02*
X130265000Y-54072500D01*
X130305000Y-61732500D02*
X130305000Y-54072500D01*
X134072211Y-60452500D02*
X134072211Y-59702500D01*
X134447211Y-60077500D02*
X133697211Y-60077500D01*
X134175000Y-57902500D02*
G75*
G02*
X126435000Y-57902500I-3870000J0D01*
G01*
X126435000Y-57902500D02*
G75*
G02*
X134175000Y-57902500I3870000J0D01*
G01*
%TO.C,BZ1*%
X82100000Y-68300000D02*
G75*
G02*
X69900000Y-68300000I-6100000J0D01*
G01*
X69900000Y-68300000D02*
G75*
G02*
X82100000Y-68300000I6100000J0D01*
G01*
D12*
%TO.C,U1*%
X65870000Y-27062500D02*
X65870000Y-48562500D01*
X66870000Y-49562500D02*
X82870000Y-49562500D01*
X82870000Y-26062500D02*
X66870000Y-26062500D01*
X83870000Y-48562500D02*
X83870000Y-27062500D01*
X65870000Y-27062500D02*
G75*
G02*
X66870000Y-26062500I999999J1D01*
G01*
X66870000Y-49562500D02*
G75*
G02*
X65870000Y-48562500I-1J999999D01*
G01*
X82870000Y-26062500D02*
G75*
G02*
X83870000Y-27062500I0J-1000000D01*
G01*
X83870000Y-48562500D02*
G75*
G02*
X82870000Y-49562500I-1000000J0D01*
G01*
D13*
X84720000Y-27652500D02*
G75*
G02*
X84520000Y-27652500I-100000J0D01*
G01*
X84520000Y-27652500D02*
G75*
G02*
X84720000Y-27652500I100000J0D01*
G01*
D10*
%TO.C,J2*%
X97817500Y-24290000D02*
X115617500Y-24290000D01*
X97817500Y-52690000D02*
X97817500Y-24290000D01*
X99917500Y-52690000D02*
X97817500Y-52690000D01*
X100217500Y-50390000D02*
X100217500Y-50690000D01*
X100217500Y-50590000D02*
X100217500Y-52690000D01*
X100217500Y-52690000D02*
X99917500Y-52690000D01*
X104617500Y-24690000D02*
X108317500Y-24690000D01*
X104617500Y-27190000D02*
X104617500Y-24690000D01*
X108417500Y-24690000D02*
X108417500Y-27190000D01*
X108417500Y-27190000D02*
X104617500Y-27190000D01*
X113117500Y-50390000D02*
X100217500Y-50390000D01*
X113117500Y-52690000D02*
X113117500Y-50390000D01*
X115617500Y-24290000D02*
X115617500Y-50590000D01*
X115617500Y-50590000D02*
X115617500Y-52690000D01*
X115617500Y-52690000D02*
X113117500Y-52690000D01*
D11*
%TO.C,R1*%
X95680000Y-54092500D02*
X95680000Y-55042500D01*
X95680000Y-59832500D02*
X95680000Y-58882500D01*
X94760000Y-58882500D02*
X96600000Y-58882500D01*
X96600000Y-55042500D01*
X94760000Y-55042500D01*
X94760000Y-58882500D01*
%TO.C,R2*%
X88305000Y-37472500D02*
X88305000Y-38422500D01*
X88305000Y-43212500D02*
X88305000Y-42262500D01*
X89225000Y-38422500D02*
X87385000Y-38422500D01*
X87385000Y-42262500D01*
X89225000Y-42262500D01*
X89225000Y-38422500D01*
%TO.C,C1*%
X119810000Y-63782500D02*
X122550000Y-63782500D01*
X119810000Y-69022500D02*
X119810000Y-63782500D01*
X122550000Y-63782500D02*
X122550000Y-69022500D01*
X122550000Y-69022500D02*
X119810000Y-69022500D01*
%TO.C,R6*%
X92055000Y-54092500D02*
X92055000Y-55042500D01*
X92055000Y-59832500D02*
X92055000Y-58882500D01*
X92975000Y-55042500D02*
X91135000Y-55042500D01*
X91135000Y-58882500D01*
X92975000Y-58882500D01*
X92975000Y-55042500D01*
%TD*%
M02*
