%TF.GenerationSoftware,KiCad,Pcbnew,9.0.3*%
%TF.CreationDate,2025-08-16T14:39:39+02:00*%
%TF.ProjectId,pico-gps-spedometer,7069636f-2d67-4707-932d-737065646f6d,rev?*%
%TF.SameCoordinates,Original*%
%TF.FileFunction,Copper,L2,Bot*%
%TF.FilePolarity,Positive*%
%FSLAX46Y46*%
G04 Gerber Fmt 4.6, Leading zero omitted, Abs format (unit mm)*
G04 Created by KiCad (PCBNEW 9.0.3) date 2025-08-16 14:39:39*
%MOMM*%
%LPD*%
G01*
G04 APERTURE LIST*
G04 Aperture macros list*
%AMRoundRect*
0 Rectangle with rounded corners*
0 $1 Rounding radius*
0 $2 $3 $4 $5 $6 $7 $8 $9 X,Y pos of 4 corners*
0 Add a 4 corners polygon primitive as box body*
4,1,4,$2,$3,$4,$5,$6,$7,$8,$9,$2,$3,0*
0 Add four circle primitives for the rounded corners*
1,1,$1+$1,$2,$3*
1,1,$1+$1,$4,$5*
1,1,$1+$1,$6,$7*
1,1,$1+$1,$8,$9*
0 Add four rect primitives between the rounded corners*
20,1,$1+$1,$2,$3,$4,$5,0*
20,1,$1+$1,$4,$5,$6,$7,0*
20,1,$1+$1,$6,$7,$8,$9,0*
20,1,$1+$1,$8,$9,$2,$3,0*%
G04 Aperture macros list end*
%ADD10C,0.300000*%
%TA.AperFunction,NonConductor*%
%ADD11C,0.300000*%
%TD*%
%TA.AperFunction,ComponentPad*%
%ADD12RoundRect,0.249999X1.250001X1.250001X-1.250001X1.250001X-1.250001X-1.250001X1.250001X-1.250001X0*%
%TD*%
%TA.AperFunction,ComponentPad*%
%ADD13C,3.000000*%
%TD*%
%TA.AperFunction,ComponentPad*%
%ADD14RoundRect,0.249999X0.850001X-0.850001X0.850001X0.850001X-0.850001X0.850001X-0.850001X-0.850001X0*%
%TD*%
%TA.AperFunction,ComponentPad*%
%ADD15C,2.200000*%
%TD*%
%TA.AperFunction,ComponentPad*%
%ADD16R,1.700000X1.700000*%
%TD*%
%TA.AperFunction,ComponentPad*%
%ADD17C,1.700000*%
%TD*%
%TA.AperFunction,ComponentPad*%
%ADD18R,1.500000X1.050000*%
%TD*%
%TA.AperFunction,ComponentPad*%
%ADD19O,1.500000X1.050000*%
%TD*%
%TA.AperFunction,ComponentPad*%
%ADD20R,1.905000X2.000000*%
%TD*%
%TA.AperFunction,ComponentPad*%
%ADD21O,1.905000X2.000000*%
%TD*%
%TA.AperFunction,ComponentPad*%
%ADD22C,1.400000*%
%TD*%
%TA.AperFunction,ComponentPad*%
%ADD23RoundRect,0.250000X-0.550000X-0.550000X0.550000X-0.550000X0.550000X0.550000X-0.550000X0.550000X0*%
%TD*%
%TA.AperFunction,ComponentPad*%
%ADD24C,1.600000*%
%TD*%
%TA.AperFunction,ComponentPad*%
%ADD25R,1.050000X1.500000*%
%TD*%
%TA.AperFunction,ComponentPad*%
%ADD26O,1.050000X1.500000*%
%TD*%
%TA.AperFunction,ComponentPad*%
%ADD27RoundRect,0.250000X0.550000X0.550000X-0.550000X0.550000X-0.550000X-0.550000X0.550000X-0.550000X0*%
%TD*%
%TA.AperFunction,ComponentPad*%
%ADD28R,2.000000X2.000000*%
%TD*%
%TA.AperFunction,ComponentPad*%
%ADD29C,2.000000*%
%TD*%
%TA.AperFunction,ComponentPad*%
%ADD30R,1.508000X1.508000*%
%TD*%
%TA.AperFunction,ComponentPad*%
%ADD31C,1.508000*%
%TD*%
%TA.AperFunction,ComponentPad*%
%ADD32R,2.800000X2.800000*%
%TD*%
%TA.AperFunction,Conductor*%
%ADD33C,1.000000*%
%TD*%
%TA.AperFunction,Conductor*%
%ADD34C,0.200000*%
%TD*%
%TA.AperFunction,Conductor*%
%ADD35C,0.800000*%
%TD*%
G04 APERTURE END LIST*
D10*
D11*
X102625489Y-91203328D02*
X102625489Y-89703328D01*
X102625489Y-89703328D02*
X102054060Y-89703328D01*
X102054060Y-89703328D02*
X101911203Y-89774757D01*
X101911203Y-89774757D02*
X101839774Y-89846185D01*
X101839774Y-89846185D02*
X101768346Y-89989042D01*
X101768346Y-89989042D02*
X101768346Y-90203328D01*
X101768346Y-90203328D02*
X101839774Y-90346185D01*
X101839774Y-90346185D02*
X101911203Y-90417614D01*
X101911203Y-90417614D02*
X102054060Y-90489042D01*
X102054060Y-90489042D02*
X102625489Y-90489042D01*
X101125489Y-91203328D02*
X101125489Y-90203328D01*
X101125489Y-89703328D02*
X101196917Y-89774757D01*
X101196917Y-89774757D02*
X101125489Y-89846185D01*
X101125489Y-89846185D02*
X101054060Y-89774757D01*
X101054060Y-89774757D02*
X101125489Y-89703328D01*
X101125489Y-89703328D02*
X101125489Y-89846185D01*
X99768346Y-91131900D02*
X99911203Y-91203328D01*
X99911203Y-91203328D02*
X100196917Y-91203328D01*
X100196917Y-91203328D02*
X100339774Y-91131900D01*
X100339774Y-91131900D02*
X100411203Y-91060471D01*
X100411203Y-91060471D02*
X100482631Y-90917614D01*
X100482631Y-90917614D02*
X100482631Y-90489042D01*
X100482631Y-90489042D02*
X100411203Y-90346185D01*
X100411203Y-90346185D02*
X100339774Y-90274757D01*
X100339774Y-90274757D02*
X100196917Y-90203328D01*
X100196917Y-90203328D02*
X99911203Y-90203328D01*
X99911203Y-90203328D02*
X99768346Y-90274757D01*
X98911203Y-91203328D02*
X99054060Y-91131900D01*
X99054060Y-91131900D02*
X99125489Y-91060471D01*
X99125489Y-91060471D02*
X99196917Y-90917614D01*
X99196917Y-90917614D02*
X99196917Y-90489042D01*
X99196917Y-90489042D02*
X99125489Y-90346185D01*
X99125489Y-90346185D02*
X99054060Y-90274757D01*
X99054060Y-90274757D02*
X98911203Y-90203328D01*
X98911203Y-90203328D02*
X98696917Y-90203328D01*
X98696917Y-90203328D02*
X98554060Y-90274757D01*
X98554060Y-90274757D02*
X98482632Y-90346185D01*
X98482632Y-90346185D02*
X98411203Y-90489042D01*
X98411203Y-90489042D02*
X98411203Y-90917614D01*
X98411203Y-90917614D02*
X98482632Y-91060471D01*
X98482632Y-91060471D02*
X98554060Y-91131900D01*
X98554060Y-91131900D02*
X98696917Y-91203328D01*
X98696917Y-91203328D02*
X98911203Y-91203328D01*
X95839774Y-89774757D02*
X95982632Y-89703328D01*
X95982632Y-89703328D02*
X96196917Y-89703328D01*
X96196917Y-89703328D02*
X96411203Y-89774757D01*
X96411203Y-89774757D02*
X96554060Y-89917614D01*
X96554060Y-89917614D02*
X96625489Y-90060471D01*
X96625489Y-90060471D02*
X96696917Y-90346185D01*
X96696917Y-90346185D02*
X96696917Y-90560471D01*
X96696917Y-90560471D02*
X96625489Y-90846185D01*
X96625489Y-90846185D02*
X96554060Y-90989042D01*
X96554060Y-90989042D02*
X96411203Y-91131900D01*
X96411203Y-91131900D02*
X96196917Y-91203328D01*
X96196917Y-91203328D02*
X96054060Y-91203328D01*
X96054060Y-91203328D02*
X95839774Y-91131900D01*
X95839774Y-91131900D02*
X95768346Y-91060471D01*
X95768346Y-91060471D02*
X95768346Y-90560471D01*
X95768346Y-90560471D02*
X96054060Y-90560471D01*
X95125489Y-91203328D02*
X95125489Y-89703328D01*
X95125489Y-89703328D02*
X94554060Y-89703328D01*
X94554060Y-89703328D02*
X94411203Y-89774757D01*
X94411203Y-89774757D02*
X94339774Y-89846185D01*
X94339774Y-89846185D02*
X94268346Y-89989042D01*
X94268346Y-89989042D02*
X94268346Y-90203328D01*
X94268346Y-90203328D02*
X94339774Y-90346185D01*
X94339774Y-90346185D02*
X94411203Y-90417614D01*
X94411203Y-90417614D02*
X94554060Y-90489042D01*
X94554060Y-90489042D02*
X95125489Y-90489042D01*
X93696917Y-91131900D02*
X93482632Y-91203328D01*
X93482632Y-91203328D02*
X93125489Y-91203328D01*
X93125489Y-91203328D02*
X92982632Y-91131900D01*
X92982632Y-91131900D02*
X92911203Y-91060471D01*
X92911203Y-91060471D02*
X92839774Y-90917614D01*
X92839774Y-90917614D02*
X92839774Y-90774757D01*
X92839774Y-90774757D02*
X92911203Y-90631900D01*
X92911203Y-90631900D02*
X92982632Y-90560471D01*
X92982632Y-90560471D02*
X93125489Y-90489042D01*
X93125489Y-90489042D02*
X93411203Y-90417614D01*
X93411203Y-90417614D02*
X93554060Y-90346185D01*
X93554060Y-90346185D02*
X93625489Y-90274757D01*
X93625489Y-90274757D02*
X93696917Y-90131900D01*
X93696917Y-90131900D02*
X93696917Y-89989042D01*
X93696917Y-89989042D02*
X93625489Y-89846185D01*
X93625489Y-89846185D02*
X93554060Y-89774757D01*
X93554060Y-89774757D02*
X93411203Y-89703328D01*
X93411203Y-89703328D02*
X93054060Y-89703328D01*
X93054060Y-89703328D02*
X92839774Y-89774757D01*
X91125489Y-91131900D02*
X90911204Y-91203328D01*
X90911204Y-91203328D02*
X90554061Y-91203328D01*
X90554061Y-91203328D02*
X90411204Y-91131900D01*
X90411204Y-91131900D02*
X90339775Y-91060471D01*
X90339775Y-91060471D02*
X90268346Y-90917614D01*
X90268346Y-90917614D02*
X90268346Y-90774757D01*
X90268346Y-90774757D02*
X90339775Y-90631900D01*
X90339775Y-90631900D02*
X90411204Y-90560471D01*
X90411204Y-90560471D02*
X90554061Y-90489042D01*
X90554061Y-90489042D02*
X90839775Y-90417614D01*
X90839775Y-90417614D02*
X90982632Y-90346185D01*
X90982632Y-90346185D02*
X91054061Y-90274757D01*
X91054061Y-90274757D02*
X91125489Y-90131900D01*
X91125489Y-90131900D02*
X91125489Y-89989042D01*
X91125489Y-89989042D02*
X91054061Y-89846185D01*
X91054061Y-89846185D02*
X90982632Y-89774757D01*
X90982632Y-89774757D02*
X90839775Y-89703328D01*
X90839775Y-89703328D02*
X90482632Y-89703328D01*
X90482632Y-89703328D02*
X90268346Y-89774757D01*
X89625490Y-90203328D02*
X89625490Y-91703328D01*
X89625490Y-90274757D02*
X89482633Y-90203328D01*
X89482633Y-90203328D02*
X89196918Y-90203328D01*
X89196918Y-90203328D02*
X89054061Y-90274757D01*
X89054061Y-90274757D02*
X88982633Y-90346185D01*
X88982633Y-90346185D02*
X88911204Y-90489042D01*
X88911204Y-90489042D02*
X88911204Y-90917614D01*
X88911204Y-90917614D02*
X88982633Y-91060471D01*
X88982633Y-91060471D02*
X89054061Y-91131900D01*
X89054061Y-91131900D02*
X89196918Y-91203328D01*
X89196918Y-91203328D02*
X89482633Y-91203328D01*
X89482633Y-91203328D02*
X89625490Y-91131900D01*
X87696918Y-91131900D02*
X87839775Y-91203328D01*
X87839775Y-91203328D02*
X88125490Y-91203328D01*
X88125490Y-91203328D02*
X88268347Y-91131900D01*
X88268347Y-91131900D02*
X88339775Y-90989042D01*
X88339775Y-90989042D02*
X88339775Y-90417614D01*
X88339775Y-90417614D02*
X88268347Y-90274757D01*
X88268347Y-90274757D02*
X88125490Y-90203328D01*
X88125490Y-90203328D02*
X87839775Y-90203328D01*
X87839775Y-90203328D02*
X87696918Y-90274757D01*
X87696918Y-90274757D02*
X87625490Y-90417614D01*
X87625490Y-90417614D02*
X87625490Y-90560471D01*
X87625490Y-90560471D02*
X88339775Y-90703328D01*
X86339776Y-91203328D02*
X86339776Y-89703328D01*
X86339776Y-91131900D02*
X86482633Y-91203328D01*
X86482633Y-91203328D02*
X86768347Y-91203328D01*
X86768347Y-91203328D02*
X86911204Y-91131900D01*
X86911204Y-91131900D02*
X86982633Y-91060471D01*
X86982633Y-91060471D02*
X87054061Y-90917614D01*
X87054061Y-90917614D02*
X87054061Y-90489042D01*
X87054061Y-90489042D02*
X86982633Y-90346185D01*
X86982633Y-90346185D02*
X86911204Y-90274757D01*
X86911204Y-90274757D02*
X86768347Y-90203328D01*
X86768347Y-90203328D02*
X86482633Y-90203328D01*
X86482633Y-90203328D02*
X86339776Y-90274757D01*
X85411204Y-91203328D02*
X85554061Y-91131900D01*
X85554061Y-91131900D02*
X85625490Y-91060471D01*
X85625490Y-91060471D02*
X85696918Y-90917614D01*
X85696918Y-90917614D02*
X85696918Y-90489042D01*
X85696918Y-90489042D02*
X85625490Y-90346185D01*
X85625490Y-90346185D02*
X85554061Y-90274757D01*
X85554061Y-90274757D02*
X85411204Y-90203328D01*
X85411204Y-90203328D02*
X85196918Y-90203328D01*
X85196918Y-90203328D02*
X85054061Y-90274757D01*
X85054061Y-90274757D02*
X84982633Y-90346185D01*
X84982633Y-90346185D02*
X84911204Y-90489042D01*
X84911204Y-90489042D02*
X84911204Y-90917614D01*
X84911204Y-90917614D02*
X84982633Y-91060471D01*
X84982633Y-91060471D02*
X85054061Y-91131900D01*
X85054061Y-91131900D02*
X85196918Y-91203328D01*
X85196918Y-91203328D02*
X85411204Y-91203328D01*
X84268347Y-91203328D02*
X84268347Y-90203328D01*
X84268347Y-90346185D02*
X84196918Y-90274757D01*
X84196918Y-90274757D02*
X84054061Y-90203328D01*
X84054061Y-90203328D02*
X83839775Y-90203328D01*
X83839775Y-90203328D02*
X83696918Y-90274757D01*
X83696918Y-90274757D02*
X83625490Y-90417614D01*
X83625490Y-90417614D02*
X83625490Y-91203328D01*
X83625490Y-90417614D02*
X83554061Y-90274757D01*
X83554061Y-90274757D02*
X83411204Y-90203328D01*
X83411204Y-90203328D02*
X83196918Y-90203328D01*
X83196918Y-90203328D02*
X83054061Y-90274757D01*
X83054061Y-90274757D02*
X82982632Y-90417614D01*
X82982632Y-90417614D02*
X82982632Y-91203328D01*
X81696918Y-91131900D02*
X81839775Y-91203328D01*
X81839775Y-91203328D02*
X82125490Y-91203328D01*
X82125490Y-91203328D02*
X82268347Y-91131900D01*
X82268347Y-91131900D02*
X82339775Y-90989042D01*
X82339775Y-90989042D02*
X82339775Y-90417614D01*
X82339775Y-90417614D02*
X82268347Y-90274757D01*
X82268347Y-90274757D02*
X82125490Y-90203328D01*
X82125490Y-90203328D02*
X81839775Y-90203328D01*
X81839775Y-90203328D02*
X81696918Y-90274757D01*
X81696918Y-90274757D02*
X81625490Y-90417614D01*
X81625490Y-90417614D02*
X81625490Y-90560471D01*
X81625490Y-90560471D02*
X82339775Y-90703328D01*
X81196918Y-90203328D02*
X80625490Y-90203328D01*
X80982633Y-89703328D02*
X80982633Y-90989042D01*
X80982633Y-90989042D02*
X80911204Y-91131900D01*
X80911204Y-91131900D02*
X80768347Y-91203328D01*
X80768347Y-91203328D02*
X80625490Y-91203328D01*
X79554061Y-91131900D02*
X79696918Y-91203328D01*
X79696918Y-91203328D02*
X79982633Y-91203328D01*
X79982633Y-91203328D02*
X80125490Y-91131900D01*
X80125490Y-91131900D02*
X80196918Y-90989042D01*
X80196918Y-90989042D02*
X80196918Y-90417614D01*
X80196918Y-90417614D02*
X80125490Y-90274757D01*
X80125490Y-90274757D02*
X79982633Y-90203328D01*
X79982633Y-90203328D02*
X79696918Y-90203328D01*
X79696918Y-90203328D02*
X79554061Y-90274757D01*
X79554061Y-90274757D02*
X79482633Y-90417614D01*
X79482633Y-90417614D02*
X79482633Y-90560471D01*
X79482633Y-90560471D02*
X80196918Y-90703328D01*
X78839776Y-91203328D02*
X78839776Y-90203328D01*
X78839776Y-90489042D02*
X78768347Y-90346185D01*
X78768347Y-90346185D02*
X78696919Y-90274757D01*
X78696919Y-90274757D02*
X78554061Y-90203328D01*
X78554061Y-90203328D02*
X78411204Y-90203328D01*
D10*
D11*
X119125489Y-83167614D02*
X118911203Y-83239042D01*
X118911203Y-83239042D02*
X118839774Y-83310471D01*
X118839774Y-83310471D02*
X118768346Y-83453328D01*
X118768346Y-83453328D02*
X118768346Y-83667614D01*
X118768346Y-83667614D02*
X118839774Y-83810471D01*
X118839774Y-83810471D02*
X118911203Y-83881900D01*
X118911203Y-83881900D02*
X119054060Y-83953328D01*
X119054060Y-83953328D02*
X119625489Y-83953328D01*
X119625489Y-83953328D02*
X119625489Y-82453328D01*
X119625489Y-82453328D02*
X119125489Y-82453328D01*
X119125489Y-82453328D02*
X118982632Y-82524757D01*
X118982632Y-82524757D02*
X118911203Y-82596185D01*
X118911203Y-82596185D02*
X118839774Y-82739042D01*
X118839774Y-82739042D02*
X118839774Y-82881900D01*
X118839774Y-82881900D02*
X118911203Y-83024757D01*
X118911203Y-83024757D02*
X118982632Y-83096185D01*
X118982632Y-83096185D02*
X119125489Y-83167614D01*
X119125489Y-83167614D02*
X119625489Y-83167614D01*
X118339774Y-82453328D02*
X117482632Y-82453328D01*
X117911203Y-83953328D02*
X117911203Y-82453328D01*
X116982632Y-83381900D02*
X115839775Y-83381900D01*
X115196917Y-83881900D02*
X114982632Y-83953328D01*
X114982632Y-83953328D02*
X114625489Y-83953328D01*
X114625489Y-83953328D02*
X114482632Y-83881900D01*
X114482632Y-83881900D02*
X114411203Y-83810471D01*
X114411203Y-83810471D02*
X114339774Y-83667614D01*
X114339774Y-83667614D02*
X114339774Y-83524757D01*
X114339774Y-83524757D02*
X114411203Y-83381900D01*
X114411203Y-83381900D02*
X114482632Y-83310471D01*
X114482632Y-83310471D02*
X114625489Y-83239042D01*
X114625489Y-83239042D02*
X114911203Y-83167614D01*
X114911203Y-83167614D02*
X115054060Y-83096185D01*
X115054060Y-83096185D02*
X115125489Y-83024757D01*
X115125489Y-83024757D02*
X115196917Y-82881900D01*
X115196917Y-82881900D02*
X115196917Y-82739042D01*
X115196917Y-82739042D02*
X115125489Y-82596185D01*
X115125489Y-82596185D02*
X115054060Y-82524757D01*
X115054060Y-82524757D02*
X114911203Y-82453328D01*
X114911203Y-82453328D02*
X114554060Y-82453328D01*
X114554060Y-82453328D02*
X114339774Y-82524757D01*
X113482632Y-83953328D02*
X113625489Y-83881900D01*
X113625489Y-83881900D02*
X113696918Y-83810471D01*
X113696918Y-83810471D02*
X113768346Y-83667614D01*
X113768346Y-83667614D02*
X113768346Y-83239042D01*
X113768346Y-83239042D02*
X113696918Y-83096185D01*
X113696918Y-83096185D02*
X113625489Y-83024757D01*
X113625489Y-83024757D02*
X113482632Y-82953328D01*
X113482632Y-82953328D02*
X113268346Y-82953328D01*
X113268346Y-82953328D02*
X113125489Y-83024757D01*
X113125489Y-83024757D02*
X113054061Y-83096185D01*
X113054061Y-83096185D02*
X112982632Y-83239042D01*
X112982632Y-83239042D02*
X112982632Y-83667614D01*
X112982632Y-83667614D02*
X113054061Y-83810471D01*
X113054061Y-83810471D02*
X113125489Y-83881900D01*
X113125489Y-83881900D02*
X113268346Y-83953328D01*
X113268346Y-83953328D02*
X113482632Y-83953328D01*
X112554060Y-82953328D02*
X111982632Y-82953328D01*
X112339775Y-83953328D02*
X112339775Y-82667614D01*
X112339775Y-82667614D02*
X112268346Y-82524757D01*
X112268346Y-82524757D02*
X112125489Y-82453328D01*
X112125489Y-82453328D02*
X111982632Y-82453328D01*
X111696917Y-82953328D02*
X111125489Y-82953328D01*
X111482632Y-82453328D02*
X111482632Y-83739042D01*
X111482632Y-83739042D02*
X111411203Y-83881900D01*
X111411203Y-83881900D02*
X111268346Y-83953328D01*
X111268346Y-83953328D02*
X111125489Y-83953328D01*
X109554060Y-82596185D02*
X109482632Y-82524757D01*
X109482632Y-82524757D02*
X109339775Y-82453328D01*
X109339775Y-82453328D02*
X108982632Y-82453328D01*
X108982632Y-82453328D02*
X108839775Y-82524757D01*
X108839775Y-82524757D02*
X108768346Y-82596185D01*
X108768346Y-82596185D02*
X108696917Y-82739042D01*
X108696917Y-82739042D02*
X108696917Y-82881900D01*
X108696917Y-82881900D02*
X108768346Y-83096185D01*
X108768346Y-83096185D02*
X109625489Y-83953328D01*
X109625489Y-83953328D02*
X108696917Y-83953328D01*
X107768346Y-82453328D02*
X107625489Y-82453328D01*
X107625489Y-82453328D02*
X107482632Y-82524757D01*
X107482632Y-82524757D02*
X107411204Y-82596185D01*
X107411204Y-82596185D02*
X107339775Y-82739042D01*
X107339775Y-82739042D02*
X107268346Y-83024757D01*
X107268346Y-83024757D02*
X107268346Y-83381900D01*
X107268346Y-83381900D02*
X107339775Y-83667614D01*
X107339775Y-83667614D02*
X107411204Y-83810471D01*
X107411204Y-83810471D02*
X107482632Y-83881900D01*
X107482632Y-83881900D02*
X107625489Y-83953328D01*
X107625489Y-83953328D02*
X107768346Y-83953328D01*
X107768346Y-83953328D02*
X107911204Y-83881900D01*
X107911204Y-83881900D02*
X107982632Y-83810471D01*
X107982632Y-83810471D02*
X108054061Y-83667614D01*
X108054061Y-83667614D02*
X108125489Y-83381900D01*
X108125489Y-83381900D02*
X108125489Y-83024757D01*
X108125489Y-83024757D02*
X108054061Y-82739042D01*
X108054061Y-82739042D02*
X107982632Y-82596185D01*
X107982632Y-82596185D02*
X107911204Y-82524757D01*
X107911204Y-82524757D02*
X107768346Y-82453328D01*
X106696918Y-82596185D02*
X106625490Y-82524757D01*
X106625490Y-82524757D02*
X106482633Y-82453328D01*
X106482633Y-82453328D02*
X106125490Y-82453328D01*
X106125490Y-82453328D02*
X105982633Y-82524757D01*
X105982633Y-82524757D02*
X105911204Y-82596185D01*
X105911204Y-82596185D02*
X105839775Y-82739042D01*
X105839775Y-82739042D02*
X105839775Y-82881900D01*
X105839775Y-82881900D02*
X105911204Y-83096185D01*
X105911204Y-83096185D02*
X106768347Y-83953328D01*
X106768347Y-83953328D02*
X105839775Y-83953328D01*
X104482633Y-82453328D02*
X105196919Y-82453328D01*
X105196919Y-82453328D02*
X105268347Y-83167614D01*
X105268347Y-83167614D02*
X105196919Y-83096185D01*
X105196919Y-83096185D02*
X105054062Y-83024757D01*
X105054062Y-83024757D02*
X104696919Y-83024757D01*
X104696919Y-83024757D02*
X104554062Y-83096185D01*
X104554062Y-83096185D02*
X104482633Y-83167614D01*
X104482633Y-83167614D02*
X104411204Y-83310471D01*
X104411204Y-83310471D02*
X104411204Y-83667614D01*
X104411204Y-83667614D02*
X104482633Y-83810471D01*
X104482633Y-83810471D02*
X104554062Y-83881900D01*
X104554062Y-83881900D02*
X104696919Y-83953328D01*
X104696919Y-83953328D02*
X105054062Y-83953328D01*
X105054062Y-83953328D02*
X105196919Y-83881900D01*
X105196919Y-83881900D02*
X105268347Y-83810471D01*
D12*
%TO.P,BT1,+,1*%
%TO.N,Net-(BT1-1)*%
X135750000Y-86402500D03*
D13*
%TO.P,BT1,-,2*%
%TO.N,Net-(BT1-2)*%
X62850000Y-86402500D03*
%TD*%
D14*
%TO.P,D1,1,K*%
%TO.N,V-IN-MEAS*%
X131500000Y-47750000D03*
D15*
%TO.P,D1,2,A*%
%TO.N,Net-(D1-A)*%
X131500000Y-37590000D03*
%TD*%
D16*
%TO.P,U2,1,GND*%
%TO.N,GND*%
X91850000Y-70402500D03*
D17*
%TO.P,U2,2,DQ*%
%TO.N,Net-(U1-GP8)*%
X94390000Y-70402500D03*
%TO.P,U2,3,V_{DD}*%
%TO.N,+3V3*%
X96930000Y-70402500D03*
%TD*%
D16*
%TO.P,J3,1,Pin_1*%
%TO.N,+3V3*%
X57000000Y-81420000D03*
D17*
%TO.P,J3,2,Pin_2*%
%TO.N,GND*%
X57000000Y-83960000D03*
%TO.P,J3,3,Pin_3*%
%TO.N,GPS_TXD*%
X57000000Y-86500000D03*
%TO.P,J3,4,Pin_4*%
%TO.N,GPS_RXD*%
X57000000Y-89040000D03*
%TO.P,J3,5,Pin_5*%
%TO.N,unconnected-(J3-Pin_5-Pad5)*%
X57000000Y-91580000D03*
%TD*%
D18*
%TO.P,Q2,1,C*%
%TO.N,Net-(Q2-C)*%
X70250000Y-58500000D03*
D19*
%TO.P,Q2,2,B*%
%TO.N,Net-(Q2-B)*%
X70250000Y-59770000D03*
%TO.P,Q2,3,E*%
%TO.N,Net-(Q2-E)*%
X70250000Y-61040000D03*
%TD*%
D20*
%TO.P,U3,1,VI*%
%TO.N,V-IN-MEAS*%
X125885000Y-25902500D03*
D21*
%TO.P,U3,2,GND*%
%TO.N,GND*%
X123345000Y-25902500D03*
%TO.P,U3,3,VO*%
%TO.N,+5V*%
X120805000Y-25902500D03*
%TD*%
D22*
%TO.P,R3,1*%
%TO.N,Net-(U1-GP26)*%
X88305000Y-53152500D03*
%TO.P,R3,2*%
%TO.N,GND*%
X88305000Y-60772500D03*
%TD*%
D23*
%TO.P,C4,1*%
%TO.N,+5V*%
X118805000Y-57902500D03*
D24*
%TO.P,C4,2*%
%TO.N,GND*%
X121305000Y-57902500D03*
%TD*%
D16*
%TO.P,U4,1,VCC*%
%TO.N,+3V3*%
X57055000Y-64922500D03*
D17*
%TO.P,U4,2,GND*%
%TO.N,GND*%
X57055000Y-62382500D03*
%TO.P,U4,3,CS*%
%TO.N,/CS*%
X57055000Y-59842500D03*
%TO.P,U4,4,RESET*%
%TO.N,/RST*%
X57055000Y-57302500D03*
%TO.P,U4,5,DC/RS*%
%TO.N,/DC*%
X57055000Y-54762500D03*
%TO.P,U4,6,SDI/MOSI*%
%TO.N,/MOSI*%
X57055000Y-52222500D03*
%TO.P,U4,7,SCK*%
%TO.N,/SCK*%
X57055000Y-49682500D03*
%TO.P,U4,8,LED*%
%TO.N,Net-(Q2-C)*%
X57055000Y-47142500D03*
%TO.P,U4,9,SDO/MISO*%
%TO.N,/MISO*%
X57055000Y-44602500D03*
%TO.P,U4,10,T_CLK*%
%TO.N,/SCK*%
X57055000Y-42062500D03*
%TO.P,U4,11,T_CS*%
%TO.N,/T_CS*%
X57055000Y-39522500D03*
%TO.P,U4,12,T_DIN*%
%TO.N,/MOSI*%
X57055000Y-36982500D03*
%TO.P,U4,13,T_DO*%
%TO.N,/MISO*%
X57055000Y-34442500D03*
%TO.P,U4,14,T_IRQ*%
%TO.N,unconnected-(U4-T_IRQ-Pad14)*%
X57055000Y-31902500D03*
%TD*%
D22*
%TO.P,R7,1*%
%TO.N,+5VBATT*%
X67750000Y-72310000D03*
%TO.P,R7,2*%
%TO.N,Net-(Q2-E)*%
X67750000Y-64690000D03*
%TD*%
D25*
%TO.P,Q1,1,E*%
%TO.N,GND*%
X86555000Y-64652500D03*
D26*
%TO.P,Q1,2,B*%
%TO.N,Net-(Q1-B)*%
X85285000Y-64652500D03*
%TO.P,Q1,3,C*%
%TO.N,Net-(BZ1--)*%
X84015000Y-64652500D03*
%TD*%
D22*
%TO.P,R8,1*%
%TO.N,Net-(Q2-B)*%
X76250000Y-60870000D03*
%TO.P,R8,2*%
%TO.N,Net-(U1-GP1)*%
X76250000Y-53250000D03*
%TD*%
%TO.P,R4,1*%
%TO.N,Net-(U1-GP9)*%
X84430000Y-53092500D03*
%TO.P,R4,2*%
%TO.N,Net-(Q1-B)*%
X84430000Y-60712500D03*
%TD*%
D24*
%TO.P,C2,1*%
%TO.N,V-IN-MEAS*%
X129180000Y-67652500D03*
%TO.P,C2,2*%
%TO.N,GND*%
X129180000Y-65152500D03*
%TD*%
D16*
%TO.P,R5,1*%
%TO.N,+3V3*%
X101805000Y-70402500D03*
D17*
%TO.P,R5,2*%
%TO.N,Net-(U1-GP27)*%
X104345000Y-70402500D03*
%TD*%
D16*
%TO.P,J1,1,Pin_1*%
%TO.N,Net-(D1-A)*%
X138250000Y-37525000D03*
D17*
%TO.P,J1,2,Pin_2*%
%TO.N,GND*%
X138250000Y-34985000D03*
%TD*%
D27*
%TO.P,C3,1*%
%TO.N,V-IN-MEAS*%
X131555000Y-57902500D03*
D24*
%TO.P,C3,2*%
%TO.N,GND*%
X129055000Y-57902500D03*
%TD*%
D28*
%TO.P,BZ1,1,+*%
%TO.N,+5VBATT*%
X76000000Y-72100000D03*
D29*
%TO.P,BZ1,2,-*%
%TO.N,Net-(BZ1--)*%
X76000000Y-64500000D03*
%TD*%
D30*
%TO.P,U1,1,GP0*%
%TO.N,/MISO*%
X82490000Y-27652500D03*
D31*
%TO.P,U1,2,GP1*%
%TO.N,Net-(U1-GP1)*%
X82490000Y-30192500D03*
%TO.P,U1,3,GP2*%
%TO.N,/SCK*%
X82490000Y-32732500D03*
%TO.P,U1,4,GP3*%
%TO.N,/MOSI*%
X82490000Y-35272500D03*
%TO.P,U1,5,GP4*%
%TO.N,/DC*%
X82490000Y-37812500D03*
%TO.P,U1,6,GP5*%
%TO.N,/RST*%
X82490000Y-40352500D03*
%TO.P,U1,7,GP6*%
%TO.N,/CS*%
X82490000Y-42892500D03*
%TO.P,U1,8,GP7*%
%TO.N,/T_CS*%
X82490000Y-45432500D03*
%TO.P,U1,9,GP8*%
%TO.N,Net-(U1-GP8)*%
X82490000Y-47972500D03*
%TO.P,U1,10,GP9*%
%TO.N,Net-(U1-GP9)*%
X79950000Y-47972500D03*
%TO.P,U1,11,GP10*%
%TO.N,unconnected-(U1-GP10-Pad11)*%
X77410000Y-47972500D03*
%TO.P,U1,12,GP11*%
%TO.N,unconnected-(U1-GP11-Pad12)*%
X74870000Y-47972500D03*
%TO.P,U1,13,GP12*%
%TO.N,GPS_RXD*%
X72330000Y-47972500D03*
%TO.P,U1,14,GP13*%
%TO.N,GPS_TXD*%
X69790000Y-47972500D03*
%TO.P,U1,15,GP14*%
%TO.N,unconnected-(U1-GP14-Pad15)*%
X67250000Y-47972500D03*
%TO.P,U1,16,GP15*%
%TO.N,unconnected-(U1-GP15-Pad16)*%
X67250000Y-45432500D03*
%TO.P,U1,17,GP26*%
%TO.N,Net-(U1-GP26)*%
X67250000Y-42892500D03*
%TO.P,U1,18,GP27*%
%TO.N,Net-(U1-GP27)*%
X67250000Y-40352500D03*
%TO.P,U1,19,GP28*%
%TO.N,unconnected-(U1-GP28-Pad19)*%
X67250000Y-37812500D03*
%TO.P,U1,20,GP29*%
%TO.N,unconnected-(U1-GP29-Pad20)*%
X67250000Y-35272500D03*
%TO.P,U1,21,3V3*%
%TO.N,+3V3*%
X67250000Y-32732500D03*
%TO.P,U1,22,GND*%
%TO.N,GND*%
X67250000Y-30192500D03*
%TO.P,U1,23,5V*%
%TO.N,+5VBATT*%
X67250000Y-27652500D03*
%TD*%
D32*
%TO.P,J2,1,Pin_1*%
%TO.N,+5V*%
X113917500Y-25990000D03*
%TO.P,J2,2,Pin_2*%
%TO.N,GND*%
X99717500Y-25990000D03*
%TO.P,J2,3,Pin_3*%
%TO.N,+5VBATT*%
X113917500Y-48890000D03*
%TO.P,J2,4,Pin_4*%
%TO.N,GND*%
X99417500Y-48890000D03*
%TO.P,J2,5,Pin_5*%
%TO.N,Net-(BT1-1)*%
X110417500Y-48890000D03*
%TO.P,J2,6,Pin_6*%
%TO.N,Net-(BT1-2)*%
X102817500Y-48890000D03*
%TD*%
D22*
%TO.P,R1,1*%
%TO.N,+3V3*%
X95680000Y-60772500D03*
%TO.P,R1,2*%
%TO.N,Net-(U1-GP8)*%
X95680000Y-53152500D03*
%TD*%
%TO.P,R2,1*%
%TO.N,V-IN-MEAS*%
X88305000Y-36532500D03*
%TO.P,R2,2*%
%TO.N,Net-(U1-GP26)*%
X88305000Y-44152500D03*
%TD*%
D24*
%TO.P,C1,1*%
%TO.N,+5V*%
X121180000Y-67652500D03*
%TO.P,C1,2*%
%TO.N,GND*%
X121180000Y-65152500D03*
%TD*%
D22*
%TO.P,R6,1*%
%TO.N,Net-(U1-GP27)*%
X92055000Y-53152500D03*
%TO.P,R6,2*%
%TO.N,GND*%
X92055000Y-60772500D03*
%TD*%
D33*
%TO.N,GND*%
X138250000Y-33500000D02*
X138250000Y-34985000D01*
X128403500Y-23653500D02*
X138250000Y-33500000D01*
X123430000Y-23653500D02*
X128403500Y-23653500D01*
D34*
%TO.N,Net-(Q1-B)*%
X84430000Y-62430000D02*
X84430000Y-60712500D01*
X85285000Y-64652500D02*
X85285000Y-63285000D01*
X85285000Y-63285000D02*
X84430000Y-62430000D01*
%TO.N,Net-(Q2-E)*%
X69560000Y-64690000D02*
X67750000Y-64690000D01*
X70250000Y-64000000D02*
X69560000Y-64690000D01*
X70250000Y-61040000D02*
X70250000Y-64000000D01*
%TO.N,Net-(Q2-B)*%
X72770000Y-59770000D02*
X70250000Y-59770000D01*
X73870000Y-60870000D02*
X72770000Y-59770000D01*
X76250000Y-60870000D02*
X73870000Y-60870000D01*
D35*
%TO.N,+3V3*%
X95680000Y-65041250D02*
X95680000Y-60772500D01*
X96930000Y-66291250D02*
X95680000Y-65041250D01*
X96930000Y-70402500D02*
X96930000Y-66291250D01*
D34*
%TO.N,/MISO*%
X77000000Y-29000000D02*
X78347500Y-27652500D01*
X78347500Y-27652500D02*
X82490000Y-27652500D01*
X65000000Y-29000000D02*
X77000000Y-29000000D01*
X59557500Y-34442500D02*
X65000000Y-29000000D01*
X57055000Y-34442500D02*
X59557500Y-34442500D01*
%TO.N,/T_CS*%
X59727500Y-39522500D02*
X57055000Y-39522500D01*
X60750000Y-38500000D02*
X59727500Y-39522500D01*
X60750000Y-34000000D02*
X60750000Y-38500000D01*
X78750000Y-31500000D02*
X63250000Y-31500000D01*
X85000000Y-30000000D02*
X84000000Y-29000000D01*
X63250000Y-31500000D02*
X60750000Y-34000000D01*
X84000000Y-29000000D02*
X81250000Y-29000000D01*
X81250000Y-29000000D02*
X78750000Y-31500000D01*
X85000000Y-44000000D02*
X85000000Y-30000000D01*
X83567500Y-45432500D02*
X85000000Y-44000000D01*
X82490000Y-45432500D02*
X83567500Y-45432500D01*
D33*
%TO.N,V-IN-MEAS*%
X131500000Y-57847500D02*
X131555000Y-57902500D01*
X131500000Y-47750000D02*
X131500000Y-57847500D01*
X129250000Y-45500000D02*
X131500000Y-47750000D01*
X129250000Y-37886999D02*
X129250000Y-45500000D01*
X125885000Y-34521999D02*
X129250000Y-37886999D01*
X125885000Y-25902500D02*
X125885000Y-34521999D01*
D34*
%TO.N,Net-(D1-A)*%
X138185000Y-37590000D02*
X138250000Y-37525000D01*
D33*
X131500000Y-37590000D02*
X138185000Y-37590000D01*
%TO.N,Net-(BT1-2)*%
X62850000Y-83650000D02*
X62850000Y-86402500D01*
D34*
%TO.N,GPS_TXD*%
X65500000Y-57000000D02*
X69790000Y-52710000D01*
X59500000Y-81000000D02*
X65500000Y-75000000D01*
X58500000Y-86500000D02*
X59500000Y-85500000D01*
X69790000Y-52710000D02*
X69790000Y-47972500D01*
X57000000Y-86500000D02*
X58500000Y-86500000D01*
X59500000Y-85500000D02*
X59500000Y-81000000D01*
X65500000Y-75000000D02*
X65500000Y-57000000D01*
%TO.N,GPS_RXD*%
X72330000Y-50920000D02*
X72330000Y-47972500D01*
X66000000Y-75750000D02*
X66000000Y-57250000D01*
X66000000Y-57250000D02*
X72330000Y-50920000D01*
X59901000Y-87349000D02*
X59901000Y-81849000D01*
X58210000Y-89040000D02*
X59901000Y-87349000D01*
X59901000Y-81849000D02*
X66000000Y-75750000D01*
X57000000Y-89040000D02*
X58210000Y-89040000D01*
D33*
%TO.N,GND*%
X55797919Y-83960000D02*
X57000000Y-83960000D01*
X53250000Y-81412081D02*
X55797919Y-83960000D01*
X53250000Y-62500000D02*
X53250000Y-81412081D01*
D35*
%TO.N,+3V3*%
X57055000Y-81365000D02*
X57000000Y-81420000D01*
X57055000Y-64922500D02*
X57055000Y-81365000D01*
D34*
%TO.N,Net-(U1-GP1)*%
X76250000Y-53250000D02*
X76250000Y-46250000D01*
X83442500Y-30192500D02*
X82490000Y-30192500D01*
X84500000Y-43500000D02*
X84500000Y-31250000D01*
X84500000Y-31250000D02*
X83442500Y-30192500D01*
X83750000Y-44250000D02*
X84500000Y-43500000D01*
X76250000Y-46250000D02*
X78250000Y-44250000D01*
X78250000Y-44250000D02*
X83750000Y-44250000D01*
D33*
%TO.N,GND*%
X101500000Y-23653500D02*
X99750000Y-23653500D01*
X57096500Y-23653500D02*
X101500000Y-23653500D01*
X99750000Y-25957500D02*
X99717500Y-25990000D01*
X99750000Y-23653500D02*
X99750000Y-25957500D01*
X123430000Y-23653500D02*
X101500000Y-23653500D01*
X123430000Y-25817500D02*
X123430000Y-23653500D01*
X123345000Y-25902500D02*
X123430000Y-25817500D01*
D34*
%TO.N,Net-(U1-GP9)*%
X79950000Y-51700000D02*
X79950000Y-47972500D01*
X81342500Y-53092500D02*
X79950000Y-51700000D01*
X84430000Y-53092500D02*
X81342500Y-53092500D01*
%TO.N,Net-(U1-GP8)*%
X84375000Y-47972500D02*
X82490000Y-47972500D01*
X86500000Y-50097500D02*
X84375000Y-47972500D01*
X86500000Y-54250000D02*
X86500000Y-50097500D01*
X95555000Y-54152500D02*
X94805000Y-54902500D01*
X94805000Y-54902500D02*
X87152500Y-54902500D01*
X87152500Y-54902500D02*
X86500000Y-54250000D01*
X95555000Y-53342500D02*
X95555000Y-54152500D01*
%TO.N,+5VBATT*%
X75790000Y-72310000D02*
X76000000Y-72100000D01*
X67750000Y-72310000D02*
X75790000Y-72310000D01*
%TO.N,Net-(BZ1--)*%
X76152500Y-64652500D02*
X76000000Y-64500000D01*
D35*
X84015000Y-64652500D02*
X76152500Y-64652500D01*
D33*
%TO.N,GND*%
X53367500Y-62382500D02*
X57055000Y-62382500D01*
X53250000Y-62500000D02*
X53367500Y-62382500D01*
X53250000Y-27500000D02*
X53250000Y-62500000D01*
X57096500Y-23653500D02*
X53250000Y-27500000D01*
D34*
%TO.N,V-IN-MEAS*%
X125982500Y-26000000D02*
X125885000Y-25902500D01*
D33*
%TO.N,Net-(BT1-1)*%
X135750000Y-81500000D02*
X135750000Y-86402500D01*
X110417500Y-75890000D02*
X113027500Y-78500000D01*
X113027500Y-78500000D02*
X132750000Y-78500000D01*
X110417500Y-48890000D02*
X110417500Y-75890000D01*
X132750000Y-78500000D02*
X135750000Y-81500000D01*
%TO.N,Net-(BT1-2)*%
X105805000Y-78402500D02*
X68097500Y-78402500D01*
D34*
X102817500Y-59890000D02*
X102805000Y-59902500D01*
D33*
X102805000Y-59902500D02*
X108305000Y-65402500D01*
X68097500Y-78402500D02*
X62850000Y-83650000D01*
X108305000Y-65402500D02*
X108305000Y-75902500D01*
X102817500Y-48890000D02*
X102817500Y-59890000D01*
X108305000Y-75902500D02*
X105805000Y-78402500D01*
D34*
%TO.N,Net-(BZ1--)*%
X75355000Y-64652500D02*
X75305000Y-64702500D01*
%TO.N,+5V*%
X118805000Y-66527500D02*
X118805000Y-57902500D01*
D33*
X120805000Y-25902500D02*
X118680000Y-25902500D01*
X118805000Y-26027500D02*
X118680000Y-25902500D01*
D34*
X121180000Y-67652500D02*
X119930000Y-67652500D01*
X119930000Y-67652500D02*
X118805000Y-66527500D01*
X114005000Y-25902500D02*
X113917500Y-25990000D01*
D33*
X118680000Y-25902500D02*
X114005000Y-25902500D01*
X118805000Y-57902500D02*
X118805000Y-26027500D01*
D34*
%TO.N,GND*%
X121180000Y-58027500D02*
X121305000Y-57902500D01*
D33*
X87555000Y-64652500D02*
X86555000Y-64652500D01*
X106500000Y-66500000D02*
X106500000Y-71500000D01*
X99930000Y-25777500D02*
X99717500Y-25990000D01*
X123345000Y-25902500D02*
X123345000Y-34845000D01*
D34*
X99717500Y-25990000D02*
X99717500Y-24990000D01*
X121180000Y-65152500D02*
X121180000Y-58027500D01*
D33*
X86805000Y-70402500D02*
X86555000Y-70152500D01*
D34*
X88365000Y-60902500D02*
X88305000Y-60842500D01*
X129055000Y-57902500D02*
X129055000Y-65027500D01*
D33*
X123345000Y-34845000D02*
X127500000Y-39000000D01*
X124805000Y-57902500D02*
X121305000Y-57902500D01*
X106500000Y-71500000D02*
X105750000Y-72250000D01*
X99417500Y-48890000D02*
X99417500Y-59417500D01*
X127500000Y-39000000D02*
X127500000Y-44832500D01*
X88305000Y-63902500D02*
X88305000Y-60842500D01*
D34*
X99417500Y-26290000D02*
X99717500Y-25990000D01*
D33*
X127500000Y-44832500D02*
X124805000Y-47527500D01*
X99417500Y-48890000D02*
X99417500Y-26290000D01*
X99417500Y-59417500D02*
X106500000Y-66500000D01*
X124805000Y-47527500D02*
X124805000Y-57902500D01*
X92500000Y-72250000D02*
X91850000Y-71600000D01*
X87555000Y-64652500D02*
X88305000Y-63902500D01*
X105750000Y-72250000D02*
X92500000Y-72250000D01*
X91850000Y-71600000D02*
X91850000Y-70402500D01*
X88305000Y-60772500D02*
X92055000Y-60772500D01*
X86555000Y-70152500D02*
X86555000Y-64652500D01*
X129055000Y-57902500D02*
X124805000Y-57902500D01*
D34*
X129055000Y-65027500D02*
X129180000Y-65152500D01*
D33*
X86805000Y-70402500D02*
X91850000Y-70402500D01*
D34*
%TO.N,V-IN-MEAS*%
X131555000Y-66777500D02*
X131555000Y-57902500D01*
X129180000Y-67652500D02*
X130680000Y-67652500D01*
X130680000Y-67652500D02*
X131555000Y-66777500D01*
D35*
%TO.N,+3V3*%
X96930000Y-70402500D02*
X101805000Y-70402500D01*
D34*
X66805000Y-32652500D02*
X66555000Y-32402500D01*
X66805000Y-32732500D02*
X66805000Y-32652500D01*
%TO.N,GPS_TXD*%
X69305000Y-48012500D02*
X69345000Y-47972500D01*
%TO.N,Net-(Q1-B)*%
X85305000Y-64632500D02*
X85285000Y-64652500D01*
%TO.N,Net-(U1-GP8)*%
X94390000Y-70402500D02*
X94390000Y-55012500D01*
%TO.N,Net-(U1-GP27)*%
X96750000Y-51500000D02*
X92750000Y-51500000D01*
X98000000Y-52750000D02*
X96750000Y-51500000D01*
X92750000Y-51500000D02*
X92055000Y-52195000D01*
X92055000Y-52195000D02*
X92055000Y-53152500D01*
X98000000Y-60500000D02*
X98000000Y-52750000D01*
X104345000Y-70402500D02*
X104345000Y-66845000D01*
X104345000Y-66845000D02*
X98000000Y-60500000D01*
%TO.N,Net-(U1-GP26)*%
X88305000Y-44152500D02*
X88305000Y-53152500D01*
%TO.N,/MISO*%
X58102500Y-44602500D02*
X57055000Y-44602500D01*
X57055000Y-34442500D02*
X55015000Y-34442500D01*
X55335400Y-53500000D02*
X57957500Y-53500000D01*
X58555000Y-45055000D02*
X58102500Y-44602500D01*
X54154000Y-52318600D02*
X55335400Y-53500000D01*
X57957500Y-53500000D02*
X58555000Y-52902500D01*
X58555000Y-52902500D02*
X58555000Y-45055000D01*
X55015000Y-34442500D02*
X54154000Y-35303500D01*
X54154000Y-35303500D02*
X54154000Y-52318600D01*
%TO.N,/RST*%
X82045000Y-40352500D02*
X77647500Y-40352500D01*
X76347500Y-41652500D02*
X64805000Y-41652500D01*
X77647500Y-40352500D02*
X76347500Y-41652500D01*
X63500000Y-42957500D02*
X63500000Y-54750000D01*
X64805000Y-41652500D02*
X63500000Y-42957500D01*
X63500000Y-54750000D02*
X60947500Y-57302500D01*
X60947500Y-57302500D02*
X57055000Y-57302500D01*
%TO.N,/SCK*%
X61750000Y-35750000D02*
X63500000Y-34000000D01*
X77490977Y-32732500D02*
X82045000Y-32732500D01*
X55437500Y-42062500D02*
X57055000Y-42062500D01*
X63500000Y-34000000D02*
X76223477Y-34000000D01*
X55250000Y-49472500D02*
X55250000Y-42250000D01*
X55250000Y-42250000D02*
X55437500Y-42062500D01*
X61750000Y-40500000D02*
X61750000Y-35750000D01*
X55460000Y-49682500D02*
X55250000Y-49472500D01*
X76223477Y-34000000D02*
X77490977Y-32732500D01*
X57055000Y-42062500D02*
X60187500Y-42062500D01*
X60187500Y-42062500D02*
X61750000Y-40500000D01*
X57055000Y-49682500D02*
X55460000Y-49682500D01*
%TO.N,/DC*%
X82045000Y-37812500D02*
X77437500Y-37812500D01*
X76097500Y-39152500D02*
X64805000Y-39152500D01*
X62750000Y-53000000D02*
X60987500Y-54762500D01*
X62750000Y-41207500D02*
X62750000Y-53000000D01*
X77437500Y-37812500D02*
X76097500Y-39152500D01*
X64805000Y-39152500D02*
X62750000Y-41207500D01*
X60987500Y-54762500D02*
X57055000Y-54762500D01*
%TO.N,/CS*%
X65250000Y-44250000D02*
X64250000Y-45250000D01*
X76500000Y-44250000D02*
X65250000Y-44250000D01*
X82045000Y-42892500D02*
X77857500Y-42892500D01*
X64250000Y-45250000D02*
X64250000Y-56250000D01*
X77857500Y-42892500D02*
X76500000Y-44250000D01*
X60657500Y-59842500D02*
X57055000Y-59842500D01*
X64250000Y-56250000D02*
X60657500Y-59842500D01*
%TO.N,/MOSI*%
X54750000Y-51847500D02*
X55125000Y-52222500D01*
X55225000Y-36982500D02*
X55207500Y-37000000D01*
X54750000Y-37250000D02*
X54750000Y-51847500D01*
X57055000Y-36982500D02*
X55225000Y-36982500D01*
X55207500Y-37000000D02*
X55000000Y-37000000D01*
X55125000Y-52222500D02*
X57055000Y-52222500D01*
X55000000Y-37000000D02*
X54750000Y-37250000D01*
%TD*%
M02*
